<svg width="100" height="46" viewBox="0 0 100 46" fill="none" xmlns="http://www.w3.org/2000/svg">
<path d="M0.504089 35.4472V34.0336H7.85782V35.4472H5.00904V43.3427H3.35287V35.4472H0.504089ZM9.27546 43.3427V34.0336H15.27V35.4472H10.9451V37.9745H14.9595V39.3882H10.9451V41.9291H15.3061V43.3427H9.27546ZM24.8628 37.1744H23.1796C23.1316 36.8956 23.0431 36.6488 22.9141 36.4336C22.7851 36.2154 22.6246 36.0306 22.4325 35.8791C22.2405 35.7275 22.0215 35.6139 21.7755 35.5382C21.5324 35.4594 21.2699 35.42 20.9879 35.42C20.4869 35.42 20.0428 35.5472 19.6558 35.8018C19.2688 36.0533 18.9657 36.423 18.7467 36.9109C18.5277 37.3957 18.4182 37.9882 18.4182 38.6882C18.4182 39.4003 18.5277 40.0003 18.7467 40.4882C18.9687 40.973 19.2717 41.3397 19.6558 41.5882C20.0428 41.8335 20.4854 41.9563 20.9834 41.9563C21.2594 41.9563 21.5175 41.92 21.7575 41.8472C22.0005 41.7715 22.2181 41.6609 22.41 41.5154C22.6051 41.37 22.7686 41.1911 22.9005 40.979C23.0356 40.7668 23.1287 40.5245 23.1796 40.2518L24.8628 40.2609C24.7997 40.7033 24.6633 41.1185 24.4532 41.5063C24.2462 41.8942 23.9747 42.2366 23.6387 42.5336C23.3026 42.8274 22.9095 43.0579 22.4595 43.2245C22.0094 43.3882 21.5099 43.47 20.9609 43.47C20.1508 43.47 19.4278 43.2806 18.7916 42.9018C18.1556 42.523 17.6546 41.976 17.2886 41.2609C16.9225 40.5457 16.7394 39.6882 16.7394 38.6882C16.7394 37.6851 16.924 36.8275 17.293 36.1154C17.662 35.4003 18.1646 34.8533 18.8006 34.4745C19.4368 34.0957 20.1568 33.9062 20.9609 33.9062C21.4739 33.9062 21.951 33.9791 22.392 34.1245C22.8331 34.27 23.2261 34.4836 23.5711 34.7654C23.9162 35.0442 24.1997 35.3866 24.4217 35.7927C24.6468 36.1957 24.7938 36.6562 24.8628 37.1744ZM26.3918 43.3427V34.0336H28.0614V37.9745H32.3324V34.0336H34.0066V43.3427H32.3324V39.3882H28.0614V43.3427H26.3918ZM43.3968 34.0336V43.3427H41.9116L37.5687 37.0018H37.4922V43.3427H35.8225V34.0336H37.3167L41.6551 40.3791H41.7361V34.0336H43.3968ZM53.4519 38.6882C53.4519 39.6912 53.2659 40.5503 52.8938 41.2654C52.5248 41.9775 52.0207 42.523 51.3817 42.9018C50.7456 43.2806 50.024 43.47 49.217 43.47C48.4098 43.47 47.6868 43.2806 47.0478 42.9018C46.4117 42.52 45.9077 41.973 45.5356 41.2609C45.1666 40.5457 44.982 39.6882 44.982 38.6882C44.982 37.6851 45.1666 36.8275 45.5356 36.1154C45.9077 35.4003 46.4117 34.8533 47.0478 34.4745C47.6868 34.0957 48.4098 33.9062 49.217 33.9062C50.024 33.9062 50.7456 34.0957 51.3817 34.4745C52.0207 34.8533 52.5248 35.4003 52.8938 36.1154C53.2659 36.8275 53.4519 37.6851 53.4519 38.6882ZM51.7732 38.6882C51.7732 37.9821 51.6637 37.3866 51.4447 36.9018C51.2287 36.4139 50.9287 36.0456 50.5446 35.7971C50.1605 35.5456 49.7181 35.42 49.217 35.42C48.7159 35.42 48.2734 35.5456 47.8893 35.7971C47.5053 36.0456 47.2038 36.4139 46.9847 36.9018C46.7687 37.3866 46.6607 37.9821 46.6607 38.6882C46.6607 39.3942 46.7687 39.9911 46.9847 40.479C47.2038 40.9638 47.5053 41.332 47.8893 41.5835C48.2734 41.832 48.7159 41.9563 49.217 41.9563C49.7181 41.9563 50.1605 41.832 50.5446 41.5835C50.9287 41.332 51.2287 40.9638 51.4447 40.479C51.6637 39.9911 51.7732 39.3942 51.7732 38.6882ZM55.0304 43.3427V34.0336H56.7001V41.9291H60.7595V43.3427H55.0304ZM70.0856 38.6882C70.0856 39.6912 69.8995 40.5503 69.5275 41.2654C69.1585 41.9775 68.6544 42.523 68.0154 42.9018C67.3792 43.2806 66.6578 43.47 65.8506 43.47C65.0435 43.47 64.3204 43.2806 63.6814 42.9018C63.0454 42.52 62.5413 41.973 62.1693 41.2609C61.8002 40.5457 61.6157 39.6882 61.6157 38.6882C61.6157 37.6851 61.8002 36.8275 62.1693 36.1154C62.5413 35.4003 63.0454 34.8533 63.6814 34.4745C64.3204 34.0957 65.0435 33.9062 65.8506 33.9062C66.6578 33.9062 67.3792 34.0957 68.0154 34.4745C68.6544 34.8533 69.1585 35.4003 69.5275 36.1154C69.8995 36.8275 70.0856 37.6851 70.0856 38.6882ZM68.4069 38.6882C68.4069 37.9821 68.2974 37.3866 68.0784 36.9018C67.8623 36.4139 67.5623 36.0456 67.1783 35.7971C66.7942 35.5456 66.3517 35.42 65.8506 35.42C65.3495 35.42 64.9071 35.5456 64.523 35.7971C64.1389 36.0456 63.8375 36.4139 63.6185 36.9018C63.4024 37.3866 63.2944 37.9821 63.2944 38.6882C63.2944 39.3942 63.4024 39.9911 63.6185 40.479C63.8375 40.9638 64.1389 41.332 64.523 41.5835C64.9071 41.832 65.3495 41.9563 65.8506 41.9563C66.3517 41.9563 66.7942 41.832 67.1783 41.5835C67.5623 41.332 67.8623 40.9638 68.0784 40.479C68.2974 39.9911 68.4069 39.3942 68.4069 38.6882ZM77.8388 37.0063C77.7637 36.7609 77.6602 36.5412 77.5282 36.3472C77.3991 36.1503 77.2431 35.9821 77.0601 35.8427C76.8801 35.7033 76.6731 35.5988 76.439 35.5291C76.2051 35.4563 75.95 35.42 75.674 35.42C75.1789 35.42 74.7379 35.5456 74.3508 35.7971C73.9638 36.0487 73.6592 36.4184 73.4373 36.9062C73.2183 37.3911 73.1087 37.9821 73.1087 38.6791C73.1087 39.3821 73.2183 39.9775 73.4373 40.4654C73.6563 40.9533 73.9608 41.3245 74.3508 41.5791C74.7409 41.8306 75.1939 41.9563 75.71 41.9563C76.1781 41.9563 76.5831 41.8654 76.9251 41.6836C77.2701 41.5018 77.5357 41.2442 77.7217 40.9109C77.9078 40.5745 78.0007 40.1805 78.0007 39.729L78.3787 39.7882H75.8765V38.47H79.6164V39.5882C79.6164 40.385 79.4483 41.0745 79.1123 41.6562C78.7763 42.2381 78.3143 42.6866 77.7262 43.0018C77.1382 43.3139 76.4631 43.47 75.701 43.47C74.8519 43.47 74.1064 43.2775 73.4643 42.8927C72.8252 42.5048 72.3257 41.9548 71.9656 41.2427C71.6086 40.5275 71.43 39.6791 71.43 38.6972C71.43 37.9457 71.5351 37.2745 71.7451 36.6836C71.9582 36.0927 72.2552 35.5912 72.6362 35.1791C73.0173 34.7639 73.4643 34.4488 73.9774 34.2336C74.4903 34.0154 75.0484 33.9062 75.6515 33.9062C76.1615 33.9062 76.6371 33.9821 77.0782 34.1336C77.5191 34.2821 77.9107 34.4942 78.2527 34.77C78.5978 35.0457 78.8813 35.373 79.1033 35.7518C79.3254 36.1306 79.4708 36.5488 79.5398 37.0063H77.8388ZM82.9006 34.0336V43.3427H81.2309V34.0336H82.9006ZM84.7086 43.3427V34.0336H90.7032V35.4472H86.3784V37.9745H90.3927V39.3882H86.3784V41.9291H90.7392V43.3427H84.7086ZM97.4157 36.5927C97.3737 36.1957 97.1967 35.8866 96.8846 35.6654C96.5756 35.4442 96.1735 35.3335 95.6785 35.3335C95.3304 35.3335 95.0319 35.3866 94.7829 35.4927C94.5339 35.5988 94.3433 35.7426 94.2113 35.9244C94.0793 36.1062 94.0118 36.3138 94.0088 36.5471C94.0088 36.7411 94.0523 36.9094 94.1393 37.0518C94.2293 37.1942 94.3508 37.3154 94.5039 37.4154C94.6569 37.5124 94.8264 37.5942 95.0124 37.6609C95.1985 37.7275 95.386 37.7836 95.575 37.8291L96.439 38.0471C96.7871 38.129 97.1216 38.2397 97.4427 38.3791C97.7667 38.5185 98.0562 38.6941 98.3112 38.9062C98.5692 39.1185 98.7733 39.3744 98.9233 39.6744C99.0733 39.9745 99.1486 40.3259 99.1486 40.729C99.1486 41.2744 99.0099 41.7548 98.7343 42.17C98.4583 42.5821 98.0592 42.9048 97.5372 43.1382C97.0182 43.3685 96.3895 43.4836 95.6515 43.4836C94.9344 43.4836 94.3118 43.3715 93.7838 43.1472C93.2588 42.923 92.8477 42.5957 92.5506 42.1654C92.2567 41.7351 92.0977 41.2109 92.0736 40.5927H93.7163C93.7403 40.9169 93.8393 41.1866 94.0133 41.4018C94.1874 41.6169 94.4139 41.7775 94.6929 41.8836C94.9749 41.9897 95.2899 42.0427 95.638 42.0427C96.001 42.0427 96.319 41.9882 96.5921 41.8791C96.8681 41.7669 97.0841 41.6124 97.2401 41.4154C97.3962 41.2154 97.4757 40.9821 97.4787 40.7154C97.4757 40.473 97.4052 40.273 97.2672 40.1154C97.1291 39.9548 96.9356 39.8215 96.6866 39.7154C96.4405 39.6063 96.1525 39.5093 95.8225 39.4244L94.7739 39.1518C94.0148 38.9548 93.4148 38.6563 92.9737 38.2563C92.5357 37.8533 92.3167 37.3185 92.3167 36.6518C92.3167 36.1033 92.4637 35.6229 92.7577 35.2108C93.0547 34.7987 93.4583 34.4791 93.9684 34.2518C94.4783 34.0215 95.0559 33.9062 95.701 33.9062C96.3551 33.9062 96.9282 34.0215 97.4201 34.2518C97.9152 34.4791 98.3037 34.7957 98.5858 35.2018C98.8678 35.6048 99.0129 36.0685 99.0228 36.5927H97.4157Z" fill="white"/>
<mask id="mask0_199_494" style="mask-type:luminance" maskUnits="userSpaceOnUse" x="0" y="0" width="100" height="26">
<path d="M99.0099 0H0V26H99.0099V0Z" fill="white"/>
</mask>
<g mask="url(#mask0_199_494)">
<path d="M14.482 7.24822C14.3675 6.16589 13.8859 5.32316 13.0364 4.72001C12.1953 4.11688 11.1008 3.81531 9.75327 3.81531C8.80579 3.81531 7.99318 3.9599 7.31529 4.24908C6.63741 4.53824 6.11878 4.9307 5.75943 5.42642C5.40008 5.92215 5.21631 6.48811 5.20815 7.12429C5.20815 7.65307 5.32657 8.11163 5.56342 8.49994C5.80844 8.88826 6.13921 9.21876 6.55574 9.49134C6.9722 9.75588 7.43378 9.97888 7.94005 10.1607C8.44649 10.3423 8.95688 10.4952 9.47143 10.6191L11.8235 11.2141C12.771 11.4371 13.6816 11.7386 14.5555 12.1187C15.4375 12.4987 16.2257 12.9779 16.9199 13.5564C17.6223 14.1347 18.1775 14.8328 18.5861 15.6509C18.9943 16.4687 19.1985 17.4272 19.1985 18.526C19.1985 20.0133 18.8229 21.3227 18.0715 22.4547C17.3201 23.5784 16.234 24.4582 14.8128 25.0944C13.3999 25.7223 11.6888 26.0364 9.67963 26.0364C7.72772 26.0364 6.03304 25.7307 4.59562 25.1192C3.16636 24.5078 2.04744 23.6156 1.23889 22.4423C0.438514 21.2691 0.00564722 19.8396 -0.0596924 18.1542H4.41184C4.47718 19.0384 4.74671 19.7737 5.2204 20.3602C5.69409 20.9468 6.31072 21.3848 7.07035 21.674C7.83793 21.9631 8.69556 22.1078 9.64288 22.1078C10.6311 22.1078 11.4968 21.9589 12.2401 21.6616C12.9915 21.3558 13.5795 20.9344 14.0042 20.3973C14.429 19.852 14.6453 19.216 14.6536 18.4889C14.6453 17.8279 14.4535 17.2826 14.0778 16.853C13.7021 16.415 13.1754 16.0515 12.4974 15.7624C11.8276 15.4648 11.0437 15.2005 10.1452 14.9691L7.29079 14.2256C5.22449 13.6885 3.59104 12.8748 2.39048 11.7842C1.19806 10.6852 0.601846 9.22701 0.601846 7.40933C0.601846 5.9139 1.00204 4.60433 1.80244 3.48068C2.61098 2.35703 3.70946 1.48538 5.09789 0.865708C6.48631 0.237799 8.05855 -0.0761719 9.81451 -0.0761719C11.595 -0.0761719 13.1548 0.237799 14.4942 0.865708C15.8419 1.48538 16.8994 2.34877 17.6671 3.4559C18.435 4.55476 18.831 5.81888 18.8555 7.24822H14.482ZM27.7955 0.27085V25.6521H23.2505V0.27085H27.7955ZM32.7173 25.6521V0.27085H48.7902V4.12513H37.2623V11.0157H47.6877V14.87H37.2623V25.6521H32.7173ZM82.4003 0.27085L87.9256 9.56567H88.1215L93.6711 0.27085H98.8532L91.1229 12.9615L98.9757 25.6521H93.7078L88.1215 16.4192H87.9256L82.3391 25.6521H77.0957L85.022 12.9615L77.1939 0.27085H82.4003Z" fill="white"/>
<path fill-rule="evenodd" clip-rule="evenodd" d="M75.4931 13.2127C75.4931 15.9474 74.9866 18.2899 73.9739 20.2397C72.9694 22.1813 71.5973 23.6684 69.8576 24.7012C69.0826 25.1635 68.2611 25.5224 67.3928 25.7777V8.16822H74.7856C75.2573 9.66505 75.4931 11.3465 75.4931 13.2127ZM71.1318 2.61605C70.7317 2.28819 70.3069 1.9909 69.8576 1.72419C68.1261 0.691437 66.162 0.175049 63.9649 0.175049C61.7681 0.175049 59.7998 0.691437 58.0601 1.72419C57.613 1.9909 57.1899 2.28819 56.7907 2.61605H71.1318ZM53.1387 8.16822H60.6792V25.8194C59.7551 25.5619 58.8822 25.1893 58.0601 24.7012C56.3288 23.6602 54.9566 22.169 53.9439 20.2273C52.9393 18.2775 52.437 15.9392 52.437 13.2127C52.437 11.3465 52.671 9.66505 53.1387 8.16822Z" fill="#E0933E"/>
</g>
</svg>
