<svg width="36" height="36" viewBox="0 0 36 36" fill="none" xmlns="http://www.w3.org/2000/svg">
<path d="M26.0072 32.0635C25.9588 32.0635 25.9099 32.0573 25.861 32.0438L19.7207 30.3991C19.4209 30.3186 19.2426 30.0104 19.323 29.71C19.4035 29.4096 19.7111 29.2319 20.0121 29.3123L26.1529 30.9576C26.4527 31.0381 26.631 31.3463 26.5506 31.6467C26.4831 31.8976 26.2558 32.0635 26.0072 32.0635Z" fill="#E0933E"/>
<path d="M9.99278 32.0621C9.74472 32.0621 9.51691 31.8962 9.44997 31.6447C9.36953 31.3444 9.54784 31.0361 9.84766 30.9557L15.9885 29.3104C16.2883 29.2299 16.5971 29.4077 16.6775 29.708C16.758 30.0084 16.5797 30.3167 16.2798 30.3971L10.139 32.0424C10.0901 32.0559 10.0412 32.0621 9.99278 32.0621Z" fill="#E0933E"/>
<path d="M16.6383 27.9533C16.3902 27.9533 16.163 27.7873 16.0955 27.5364C16.0145 27.2366 15.709 27.0589 15.4058 27.1382C15.1054 27.2203 14.7978 27.0409 14.7168 26.7405C14.6358 26.4407 14.8146 26.1319 15.1144 26.0514C16.0105 25.8118 16.9403 26.3456 17.1816 27.2445C17.2626 27.5449 17.0838 27.8531 16.7839 27.9336C16.7356 27.9471 16.6866 27.9533 16.6383 27.9533Z" fill="#E0933E"/>
<path d="M19.3623 27.9533C19.3139 27.9533 19.2649 27.9471 19.216 27.9336C18.9162 27.8531 18.7373 27.5449 18.8183 27.2445C19.0596 26.3456 19.99 25.8118 20.8855 26.0514C21.1853 26.1319 21.3642 26.4401 21.2832 26.7405C21.2022 27.0409 20.8945 27.2186 20.5941 27.1382C20.2909 27.0589 19.9855 27.2366 19.9045 27.5364C19.8376 27.7873 19.6103 27.9527 19.3623 27.9533Z" fill="#E0933E"/>
<path d="M5.97453 23.9602C5.8159 23.9602 5.65728 23.8927 5.5459 23.7622C4.49628 22.5275 3.92478 20.9553 3.93771 19.3353C3.93996 19.026 4.1914 18.7773 4.50021 18.7773H4.50472C4.81522 18.7802 5.06496 19.0338 5.06271 19.3443C5.05203 20.6943 5.5279 22.0044 6.40315 23.0332C6.60397 23.27 6.57584 23.625 6.33903 23.8263C6.23328 23.9163 6.1039 23.9602 5.97453 23.9602Z" fill="#E0933E"/>
<path d="M9.966 6.5348C9.94856 6.5348 9.93056 6.53424 9.912 6.53255C9.60262 6.5033 9.37594 6.22824 9.40575 5.91943C9.42937 5.66799 9.32756 5.42612 9.12619 5.25512C8.92481 5.08412 8.66775 5.02393 8.42419 5.08974C8.12437 5.17074 7.81556 4.99243 7.73512 4.69205C7.65469 4.39168 7.833 4.08343 8.13281 4.00299C8.73075 3.84268 9.37312 3.99005 9.85237 4.39618C10.3327 4.8023 10.5842 5.41149 10.5251 6.02574C10.4976 6.31655 10.2529 6.5348 9.966 6.5348Z" fill="#E0933E"/>
<path d="M9.93295 6.73039C9.88851 6.73039 9.84295 6.72533 9.79795 6.71408C9.49645 6.63983 9.31195 6.33495 9.38676 6.03345C9.40982 5.93839 9.41545 5.84108 9.40251 5.74377C9.36201 5.43608 9.57857 5.15314 9.88626 5.11264C10.1945 5.07045 10.4769 5.2887 10.5174 5.59639C10.5489 5.83264 10.5354 6.07058 10.4786 6.30233C10.4156 6.55883 10.1855 6.73039 9.93295 6.73039Z" fill="#E0933E"/>
<path d="M7.41915 12.3712C7.22678 12.3712 7.0389 12.2722 6.93428 12.0944C6.49722 11.3542 5.59722 11.0397 4.79453 11.3491C4.5054 11.4588 4.17915 11.3159 4.06778 11.0257C3.9564 10.7354 4.10153 10.4103 4.39122 10.2989C5.70859 9.79268 7.18572 10.3074 7.9029 11.5229C8.0604 11.7907 7.97209 12.1355 7.70434 12.2936C7.6149 12.3464 7.51647 12.3712 7.41915 12.3712Z" fill="#E0933E"/>
<path d="M4.50002 19.9022C4.49833 19.9022 4.4972 19.9022 4.49552 19.9022C4.18445 19.9 3.93527 19.6463 3.93752 19.3358C3.95552 17.0993 4.20639 14.86 4.68283 12.6792C4.74864 12.3754 5.04508 12.1831 5.3522 12.2494C5.65539 12.3158 5.84777 12.6156 5.78139 12.9188C5.32183 15.0242 5.07939 17.1859 5.06252 19.3442C5.0597 19.6536 4.80883 19.9022 4.50002 19.9022Z" fill="#E0933E"/>
<path d="M5.75982 11.2585C5.70132 11.2585 5.64113 11.2489 5.58263 11.2298C5.28844 11.1319 5.12813 10.8135 5.226 10.5188L5.91169 8.45327C6.44044 7.01158 7.06819 5.61377 7.78257 4.28121C7.92882 4.00783 8.26969 3.90433 8.54419 4.05114C8.81757 4.19796 8.92107 4.53883 8.77369 4.81277C8.08407 6.09921 7.47825 7.44864 6.97369 8.82396L6.29419 10.8726C6.21544 11.1088 5.9955 11.2585 5.75982 11.2585Z" fill="#E0933E"/>
<path d="M7.84331 19.5522C7.65656 19.5522 7.47431 19.4594 7.36687 19.2901C6.74193 18.3012 5.95949 16.9687 5.45493 15.4285C5.26931 14.8621 5.10224 14.2878 4.93518 13.7135C4.67587 12.8197 4.40756 11.8955 4.06893 11.0287C3.95587 10.739 4.09931 10.4133 4.38843 10.3002C4.67587 10.1877 5.00381 10.33 5.11687 10.6197C5.47349 11.5332 5.74912 12.4822 6.01574 13.3996C6.17887 13.9621 6.34199 14.524 6.52368 15.0781C6.89212 16.2031 7.42874 17.2831 8.31806 18.6893C8.48399 18.952 8.40524 19.2991 8.14256 19.465C8.05031 19.5241 7.94624 19.5522 7.84331 19.5522Z" fill="#E0933E"/>
<path d="M10.2066 28.5109C9.95858 28.5109 9.73077 28.345 9.66384 28.0936C9.5834 27.7932 9.76171 27.4849 10.0615 27.4045L15.115 26.0506C15.4154 25.9701 15.7242 26.1484 15.8041 26.4482C15.8845 26.7486 15.7062 27.0569 15.4064 27.1373L10.3529 28.4912C10.3034 28.5047 10.2545 28.5109 10.2066 28.5109Z" fill="#E0933E"/>
<path d="M9.40991 29.8897C9.16184 29.8897 8.93459 29.7238 8.86709 29.4729C8.75009 29.0375 8.80972 28.5824 9.03584 28.1921C9.26084 27.8017 9.62534 27.5227 10.0602 27.4063C10.36 27.3253 10.6688 27.5036 10.7492 27.8039C10.8297 28.1043 10.6513 28.4126 10.3515 28.493C10.2064 28.5318 10.0849 28.6246 10.0101 28.7551C9.93528 28.8851 9.91503 29.0369 9.95384 29.1815C10.0348 29.4819 9.85597 29.7901 9.55616 29.8706C9.50722 29.8835 9.45828 29.8897 9.40991 29.8897Z" fill="#E0933E"/>
<path d="M9.99294 32.0627C9.74487 32.0627 9.51706 31.8968 9.45012 31.6453L8.86794 29.4718C8.7875 29.1715 8.96581 28.8632 9.26562 28.7828C9.56544 28.7029 9.87425 28.8807 9.95469 29.1805L10.5369 31.354C10.6173 31.6543 10.439 31.9626 10.1392 32.043C10.0902 32.0565 10.0413 32.0627 9.99294 32.0627Z" fill="#E0933E"/>
<path d="M7.83821 26.1521C7.67959 26.1521 7.52153 26.0846 7.40959 25.9541L5.54603 23.7631C5.34521 23.5263 5.37334 23.1714 5.60959 22.97C5.8464 22.7692 6.20078 22.7967 6.40271 23.0341L8.26628 25.2251C8.46709 25.4613 8.43896 25.8168 8.20271 26.0182C8.09696 26.1082 7.96703 26.1521 7.83821 26.1521Z" fill="#E0933E"/>
<path d="M15.3242 23.3204C15.1341 23.3204 14.949 23.2242 14.8432 23.0504L14.5896 22.633C14.1778 21.9535 13.7064 21.3061 13.1867 20.7093C12.9831 20.4747 13.0078 20.1192 13.2424 19.9156C13.4764 19.712 13.8313 19.7356 14.0361 19.9713C14.5974 20.617 15.1071 21.3162 15.5514 22.0497L15.8046 22.4665C15.966 22.732 15.8816 23.078 15.6161 23.2394C15.525 23.2945 15.4237 23.3204 15.3242 23.3204Z" fill="#E0933E"/>
<path d="M8.98595 26.509C8.73788 26.509 8.51007 26.3431 8.44313 26.0916C8.3627 25.7913 8.54101 25.483 8.84082 25.4026L14.5074 23.8844C14.8084 23.8045 15.1161 23.9817 15.1965 24.2821C15.2769 24.5824 15.0986 24.8907 14.7988 24.9711L9.1322 26.4893C9.0827 26.5028 9.03432 26.509 8.98595 26.509Z" fill="#E0933E"/>
<path d="M27.014 26.509C26.9657 26.509 26.9167 26.5028 26.8678 26.4893L21.2012 24.9711C20.9014 24.8907 20.723 24.5824 20.8035 24.2821C20.8839 23.9817 21.1922 23.8045 21.4925 23.8844L27.1592 25.4026C27.459 25.483 27.6373 25.7913 27.5569 26.0916C27.4899 26.3436 27.2627 26.509 27.014 26.509Z" fill="#E0933E"/>
<path d="M20.6756 23.3209C20.5761 23.3209 20.4754 23.2945 20.3837 23.2388C20.1182 23.0774 20.0338 22.7314 20.1953 22.4659L20.4489 22.0485C20.8928 21.3156 21.4024 20.6164 21.9638 19.9707C22.1679 19.7361 22.5234 19.7119 22.7574 19.915C22.992 20.1186 23.0168 20.4741 22.8131 20.7087C22.2934 21.306 21.822 21.9529 21.4108 22.6319L21.1566 23.0504C21.0508 23.2253 20.8658 23.3209 20.6756 23.3209Z" fill="#E0933E"/>
<path d="M28.1618 26.1521C28.033 26.1521 27.9031 26.1082 27.7973 26.0182C27.5611 25.8168 27.5324 25.4619 27.7338 25.2251L29.5973 23.0341C29.7993 22.7967 30.1542 22.7692 30.3904 22.97C30.6267 23.1714 30.6554 23.5263 30.454 23.7631L28.5904 25.9541C28.4791 26.0851 28.321 26.1521 28.1618 26.1521Z" fill="#E0933E"/>
<path d="M26.0076 32.0627C25.9592 32.0627 25.9103 32.0565 25.8613 32.043C25.5615 31.9626 25.3832 31.6543 25.4636 31.354L26.0458 29.1805C26.1263 28.8807 26.434 28.7029 26.7349 28.7828C27.0347 28.8632 27.213 29.1715 27.1326 29.4718L26.5504 31.6453C26.4835 31.8968 26.2562 32.0627 26.0076 32.0627Z" fill="#E0933E"/>
<path d="M26.5901 29.8883C26.5417 29.8883 26.4928 29.8821 26.4438 29.8686C26.144 29.7882 25.9651 29.4799 26.0461 29.1795C26.0849 29.035 26.0647 28.8831 25.9899 28.7532C25.9145 28.6232 25.793 28.5304 25.6484 28.491C25.3486 28.4106 25.1703 28.1024 25.2507 27.802C25.3312 27.5016 25.6406 27.3233 25.9398 27.4043C26.3746 27.5207 26.7391 27.8003 26.9641 28.1901C27.1897 28.5805 27.2499 29.035 27.1329 29.4709C27.0648 29.7224 26.8381 29.8883 26.5901 29.8883Z" fill="#E0933E"/>
<path d="M25.7945 28.5109C25.7461 28.5109 25.6972 28.5047 25.6482 28.4912L20.5947 27.1373C20.2949 27.0569 20.1166 26.7486 20.197 26.4482C20.2775 26.1484 20.5863 25.9701 20.8861 26.0506L25.9396 27.4045C26.2394 27.4849 26.4177 27.7932 26.3373 28.0936C26.2704 28.345 26.0431 28.5109 25.7945 28.5109Z" fill="#E0933E"/>
<path d="M28.1567 19.5522C28.0538 19.5522 27.9503 19.5241 27.8569 19.465C27.5942 19.2991 27.516 18.9515 27.6814 18.6893C28.5707 17.2831 29.1073 16.2031 29.4758 15.0781C29.6575 14.524 29.8206 13.9621 29.9837 13.3996C30.2503 12.4822 30.526 11.5332 30.8826 10.6197C30.9957 10.33 31.3219 10.1877 31.611 10.3002C31.9007 10.4133 32.0442 10.7395 31.9305 11.0287C31.5919 11.8955 31.3236 12.8197 31.0643 13.7135C30.8972 14.2878 30.7302 14.8621 30.5445 15.4285C30.04 16.9687 29.2575 18.3012 28.6326 19.2901C28.5257 19.4594 28.3435 19.5522 28.1567 19.5522Z" fill="#E0933E"/>
<path d="M30.2406 11.2572C30.0049 11.2572 29.785 11.1076 29.7068 10.8713L29.0211 8.8058C28.5222 7.4468 27.9164 6.09736 27.2273 4.81093C27.0799 4.53699 27.1834 4.19611 27.4568 4.0493C27.7307 3.90249 28.0722 4.00543 28.2184 4.27936C28.9334 5.61193 29.5606 7.00974 30.0831 8.43455L30.7744 10.5169C30.8723 10.8117 30.7126 11.1301 30.4178 11.2279C30.3593 11.2476 30.2991 11.2572 30.2406 11.2572Z" fill="#E0933E"/>
<path d="M31.5005 19.9024C31.1917 19.9024 30.9408 19.6538 30.938 19.3444C30.9212 17.1861 30.6787 15.0244 30.2192 12.919C30.1528 12.6152 30.3452 12.316 30.6483 12.2496C30.9543 12.1827 31.2519 12.3756 31.3177 12.6793C31.7947 14.8602 32.045 17.0995 32.063 19.336C32.0653 19.6465 31.8161 19.9002 31.505 19.903C31.5033 19.9024 31.5022 19.9024 31.5005 19.9024Z" fill="#E0933E"/>
<path d="M28.5809 12.3717C28.4836 12.3717 28.3851 12.347 28.2951 12.2936C28.0274 12.1355 27.9391 11.7907 28.0966 11.5229C28.8138 10.3074 30.2909 9.79268 31.6083 10.2989C31.8985 10.4103 32.0431 10.736 31.9317 11.0257C31.8198 11.3159 31.493 11.4599 31.205 11.3491C30.4006 11.0392 29.5028 11.3542 29.0652 12.0944C28.9606 12.2727 28.7727 12.3717 28.5809 12.3717Z" fill="#E0933E"/>
<path d="M26.068 6.73039C25.8154 6.73039 25.5859 6.55883 25.5224 6.30233C25.465 6.07002 25.452 5.83264 25.4835 5.59639C25.524 5.2887 25.8059 5.07045 26.1147 5.11264C26.4229 5.15314 26.6395 5.43608 26.5984 5.74377C26.586 5.84108 26.5911 5.93839 26.6142 6.03345C26.689 6.33552 26.5045 6.63983 26.203 6.71408C26.158 6.72533 26.1124 6.73039 26.068 6.73039Z" fill="#E0933E"/>
<path d="M26.0344 6.5347C25.7476 6.5347 25.5034 6.31701 25.4753 6.0262C25.4162 5.41195 25.6671 4.80332 26.1464 4.3972C26.6273 3.99051 27.2708 3.84257 27.8676 4.00288C28.1674 4.08332 28.3457 4.39157 28.2653 4.69195C28.1854 4.99232 27.8772 5.17063 27.5762 5.08963C27.3338 5.02495 27.0762 5.08401 26.8737 5.25613C26.6723 5.42657 26.5705 5.66788 26.5947 5.91876C26.6245 6.22813 26.3978 6.50263 26.089 6.53245C26.071 6.53357 26.0524 6.5347 26.0344 6.5347Z" fill="#E0933E"/>
<path d="M30.026 23.9602C29.8972 23.9602 29.7673 23.9163 29.6621 23.8263C29.4253 23.6255 29.3966 23.27 29.598 23.0332C30.4732 22.0044 30.9485 20.6943 30.9384 19.3443C30.9362 19.0338 31.1859 18.7802 31.4964 18.7773H31.5009C31.8097 18.7773 32.0612 19.026 32.0634 19.3353C32.0758 20.9553 31.5048 22.5275 30.4552 23.7622C30.3433 23.8933 30.1847 23.9602 30.026 23.9602Z" fill="#E0933E"/>
<path d="M13.6108 20.9028C13.455 20.9028 13.2997 20.8381 13.1883 20.7121C10.8444 18.0498 8.74066 15.1506 6.93447 12.0951C6.77697 11.8274 6.86528 11.4826 7.13303 11.3245C7.39966 11.1665 7.74447 11.2548 7.90366 11.5225C9.67328 14.5173 11.736 17.359 14.0332 19.9685C14.238 20.2019 14.2155 20.5568 13.9826 20.7621C13.8757 20.8566 13.7435 20.9028 13.6108 20.9028Z" fill="#E0933E"/>
<path d="M8.21908 13.6857C8.17464 13.6857 8.12908 13.6806 8.08408 13.6694C7.78258 13.5951 7.59808 13.2903 7.67289 12.9888L9.38683 6.03346C9.46108 5.73196 9.76708 5.54802 10.0675 5.62171C10.369 5.69596 10.5535 6.00084 10.4786 6.30234L8.7647 13.2576C8.7017 13.5141 8.4722 13.6857 8.21908 13.6857Z" fill="#E0933E"/>
<path d="M8.69915 26.5465C8.2109 26.5465 7.7339 26.3339 7.41046 25.9525C7.20909 25.7157 7.23778 25.3608 7.47459 25.1594C7.70971 24.9586 8.06634 24.9861 8.26715 25.2241C8.40721 25.3883 8.63053 25.4592 8.84146 25.4024C9.14128 25.3225 9.44953 25.4997 9.53053 25.8001C9.61153 26.1005 9.43322 26.4087 9.13284 26.4891C8.9894 26.528 8.84371 26.5465 8.69915 26.5465Z" fill="#E0933E"/>
<path d="M14.6531 24.9919C14.4051 24.9919 14.1778 24.8259 14.1103 24.5745C14.0293 24.2747 14.2082 23.9659 14.508 23.8854C14.6745 23.8404 14.8089 23.7189 14.8764 23.5513C14.9451 23.382 14.9327 23.1986 14.8421 23.0484C14.6818 22.7824 14.7673 22.437 15.0339 22.2761C15.2994 22.1158 15.6454 22.2013 15.8057 22.4679C16.0796 22.9236 16.1218 23.4714 15.9199 23.9715C15.7185 24.4699 15.3101 24.8344 14.7988 24.9716C14.7504 24.9857 14.7015 24.9919 14.6531 24.9919Z" fill="#E0933E"/>
<path d="M21.3472 24.9907C21.2988 24.9907 21.2499 24.9845 21.201 24.971C20.6891 24.8343 20.2796 24.4687 20.0788 23.9681C19.8774 23.4669 19.9196 22.9196 20.1946 22.4656C20.3561 22.2001 20.702 22.1163 20.9675 22.2766C21.233 22.4375 21.3179 22.7834 21.1571 23.0495C21.0671 23.1974 21.0541 23.3797 21.1222 23.549C21.1903 23.7178 21.3247 23.8404 21.4918 23.8848C21.7916 23.9653 21.9699 24.2735 21.8894 24.5733C21.8231 24.8248 21.5958 24.9907 21.3472 24.9907Z" fill="#E0933E"/>
<path d="M27.3021 26.5483C27.157 26.5483 27.0113 26.5297 26.8684 26.4909C26.568 26.4105 26.3897 26.1022 26.4707 25.8018C26.5517 25.502 26.8588 25.3248 27.1598 25.4042C27.3701 25.461 27.5935 25.3895 27.7341 25.2258C27.9343 24.9885 28.2893 24.9603 28.5266 25.1612C28.7635 25.3625 28.7927 25.7175 28.5908 25.9543C28.2673 26.3357 27.7903 26.5483 27.3021 26.5483Z" fill="#E0933E"/>
<path d="M27.7811 13.6857C27.5285 13.6857 27.299 13.5141 27.2355 13.2576L25.5215 6.30234C25.4467 6.00084 25.6312 5.69596 25.9327 5.62171C26.2336 5.54802 26.5391 5.73196 26.6133 6.03346L28.3273 12.9888C28.4021 13.2903 28.2176 13.5951 27.9161 13.6694C27.8711 13.6801 27.8255 13.6857 27.7811 13.6857Z" fill="#E0933E"/>
<path d="M22.3895 20.9028C22.2573 20.9028 22.1246 20.8566 22.0177 20.7621C21.7848 20.5568 21.7623 20.2013 21.9671 19.9685C24.2649 17.359 26.327 14.5173 28.0967 11.5225C28.2547 11.2548 28.6001 11.1665 28.8673 11.3245C29.1345 11.4826 29.2233 11.8274 29.0658 12.0951C27.2597 15.1506 25.1559 18.0498 22.812 20.7121C22.7 20.8381 22.5453 20.9028 22.3895 20.9028Z" fill="#E0933E"/>
<path d="M17.9821 15.9241C16.8003 15.9241 15.6641 15.586 14.696 14.9459C12.338 13.3878 11.375 10.2468 12.4567 7.63958C13.3752 5.4267 15.6146 3.93945 18.0299 3.93945C18.4186 3.93945 18.809 3.97827 19.1892 4.05477C21.9776 4.61558 24.0014 7.08945 24.0014 9.93739C24.0014 11.4871 23.381 13.0126 22.301 14.1224C21.1856 15.2676 19.6117 15.9241 17.9821 15.9241ZM18.0299 5.06502C16.064 5.06502 14.2421 6.2727 13.4956 8.07102C12.6164 10.1888 13.3994 12.7409 15.3164 14.0076C16.1 14.5257 17.0214 14.7991 17.9816 14.7991C19.3091 14.7991 20.5899 14.2664 21.4932 13.3377C22.3719 12.4355 22.8753 11.1963 22.8753 9.93739C22.8753 7.66039 21.1951 5.60558 18.9665 5.15783C18.6599 5.09652 18.3444 5.06502 18.0299 5.06502Z" fill="#E0933E"/>
<path d="M17.999 13.5938C17.688 13.5938 17.4365 13.3417 17.4365 13.0312V11.9062C17.4365 11.5958 17.688 11.3438 17.999 11.3438C18.3101 11.3438 18.5615 11.5958 18.5615 11.9062V13.0312C18.5615 13.3417 18.3101 13.5938 17.999 13.5938Z" fill="#E0933E"/>
<path d="M18.001 8.53125C17.6899 8.53125 17.4385 8.27925 17.4385 7.96875V6.84375C17.4385 6.53325 17.6899 6.28125 18.001 6.28125C18.312 6.28125 18.5635 6.53325 18.5635 6.84375V7.96875C18.5635 8.27925 18.312 8.53125 18.001 8.53125Z" fill="#E0933E"/>
<path d="M19.2646 12.4688H16.7334C16.4223 12.4688 16.1709 12.2167 16.1709 11.9062C16.1709 11.5958 16.4223 11.3438 16.7334 11.3438H18.7021V10.5H16.7356C16.4246 10.5 16.1731 10.248 16.1731 9.9375V7.96875C16.1731 7.65825 16.4246 7.40625 16.7356 7.40625H19.2669C19.578 7.40625 19.8294 7.65825 19.8294 7.96875C19.8294 8.27925 19.578 8.53125 19.2669 8.53125H17.2981V9.375H19.2646C19.5757 9.375 19.8271 9.627 19.8271 9.9375V11.9062C19.8271 12.2167 19.5757 12.4688 19.2646 12.4688Z" fill="#E0933E"/>
</svg>
