<svg width="36" height="36" viewBox="0 0 36 36" fill="none" xmlns="http://www.w3.org/2000/svg">
<g clip-path="url(#clip0_188_286)">
<path d="M30.7282 2.79031C30.3163 2.37849 29.6484 2.37849 29.2366 2.79031C28.8247 3.2022 28.8248 3.87003 29.2366 4.28185C32.2381 7.28314 33.891 11.2736 33.891 15.5183C33.891 16.1007 34.3633 16.573 34.9457 16.573C35.5282 16.573 36.0004 16.1007 36.0004 15.5183C36.0004 10.7102 34.1281 6.18992 30.7282 2.79031Z" fill="#E0933E"/>
<path d="M6.76357 2.79034C6.35168 2.37852 5.68392 2.37845 5.27203 2.79034C1.87228 6.19023 0 10.7104 0 15.5182C0 16.1007 0.472219 16.5729 1.05469 16.5729C1.63716 16.5729 2.10938 16.1007 2.10938 15.5182C2.10938 11.2738 3.76228 7.28338 6.76357 4.28195C7.17546 3.87006 7.17546 3.20223 6.76357 2.79034Z" fill="#E0933E"/>
<path d="M26.0403 5.98563C25.6284 6.39752 25.6285 7.06528 26.0403 7.47717C28.1884 9.62508 29.3713 12.4809 29.3713 15.5187C29.3713 16.1011 29.8435 16.5734 30.426 16.5734C31.0085 16.5734 31.4807 16.1011 31.4807 15.5187C31.4807 11.9175 30.0783 8.53186 27.5319 5.98556C27.12 5.57381 26.4522 5.57381 26.0403 5.98563Z" fill="#E0933E"/>
<path d="M9.95842 5.98561C9.54653 5.57379 8.8787 5.57379 8.46688 5.98568C5.9208 8.53212 4.51855 11.9175 4.51855 15.5182C4.51855 16.1006 4.99077 16.5728 5.57324 16.5728C6.15571 16.5728 6.62793 16.1006 6.62793 15.5182C6.62793 12.4809 7.8108 9.6252 9.95856 7.47715C10.3704 7.06526 10.3703 6.3975 9.95842 5.98561Z" fill="#E0933E"/>
<path d="M26.9628 23.177V17.7775C26.9628 15.808 26.3357 13.9392 25.1494 12.373C24.1579 11.064 22.8057 10.0414 21.2865 9.43974C21.0751 7.81475 19.682 6.55566 18.0002 6.55566C16.3185 6.55566 14.9253 7.81468 14.7138 9.43974C13.1946 10.0415 11.8425 11.064 10.851 12.373C9.66468 13.9392 9.03763 15.808 9.03763 17.7775V23.177L6.88966 27.4731C6.72618 27.8 6.74369 28.1883 6.93585 28.4992C7.12802 28.8101 7.46749 28.9994 7.83304 28.9994H12.5281C13.0226 31.5699 15.2876 33.5182 18.0002 33.5182C20.7127 33.5182 22.9776 31.5699 23.4721 28.9994H28.1674C28.533 28.9994 28.8724 28.8101 29.0646 28.4992C29.2568 28.1883 29.2742 27.8 29.1108 27.4731L26.9628 23.177ZM18.0002 31.4088C16.4577 31.4088 15.1474 30.3954 14.7003 28.9994H21.3001C20.8529 30.3954 19.5427 31.4088 18.0002 31.4088ZM22.5189 26.89H13.4815H9.53959L11.0358 23.8976C11.109 23.7511 11.1471 23.5897 11.1471 23.426V17.7775C11.1471 14.7687 13.1598 12.068 16.0417 11.21C16.4889 11.0768 16.7954 10.6657 16.7954 10.1992V9.8697C16.7954 9.20546 17.3359 8.66504 18.0002 8.66504C18.6645 8.66504 19.2049 9.20546 19.2049 9.8697V10.1992C19.2049 10.6658 19.5115 11.0769 19.9586 11.21C22.8405 12.068 24.8534 14.7686 24.8534 17.7775V23.426C24.8534 23.5897 24.8915 23.7511 24.9647 23.8976L26.4609 26.89H22.5189Z" fill="#E0933E"/>
</g>
<defs>
<clipPath id="clip0_188_286">
<rect width="36" height="36" fill="white"/>
</clipPath>
</defs>
</svg>
