<svg width="36" height="36" viewBox="0 0 36 36" fill="none" xmlns="http://www.w3.org/2000/svg">
<path d="M24.0242 12.7607L20.2061 12.2059L18.4989 8.74627C18.4524 8.65213 18.3806 8.57286 18.2915 8.51743C18.2023 8.46199 18.0994 8.43262 17.9945 8.43262C17.8895 8.43262 17.7866 8.46199 17.6975 8.51743C17.6083 8.57286 17.5365 8.65213 17.4901 8.74627L15.7822 12.2059L11.9642 12.7607C11.8603 12.7757 11.7627 12.8195 11.6825 12.8871C11.6022 12.9547 11.5425 13.0434 11.51 13.1432C11.4775 13.243 11.4737 13.3499 11.4988 13.4518C11.5239 13.5537 11.577 13.6465 11.6522 13.7198L14.4153 16.4131L13.763 20.216C13.7453 20.3194 13.7569 20.4258 13.7965 20.5229C13.8361 20.6201 13.902 20.7043 13.987 20.766C14.0719 20.8276 14.1723 20.8643 14.277 20.8719C14.3817 20.8794 14.4864 20.8575 14.5793 20.8087L17.9943 19.0136L21.4094 20.8087C21.5023 20.8575 21.607 20.8794 21.7117 20.8719C21.8163 20.8643 21.9168 20.8276 22.0017 20.766C22.0866 20.7043 22.1526 20.6201 22.1922 20.5229C22.2318 20.4258 22.2434 20.3194 22.2257 20.216L21.5734 16.4131L24.3362 13.7198C24.4113 13.6465 24.4644 13.5537 24.4896 13.4518C24.5147 13.3499 24.5108 13.243 24.4783 13.1432C24.4459 13.0434 24.3861 12.9547 24.3059 12.8871C24.2256 12.8195 24.1281 12.7757 24.0242 12.7607ZM20.5761 15.8143C20.5109 15.878 20.4621 15.9566 20.4339 16.0433C20.4058 16.1299 20.399 16.2222 20.4144 16.312L20.9241 19.2827L18.2561 17.8803C18.1754 17.8376 18.0856 17.8152 17.9943 17.8152C17.9031 17.8152 17.8132 17.8376 17.7326 17.8803L15.0645 19.2827L15.574 16.312C15.5893 16.2221 15.5826 16.1299 15.5544 16.0432C15.5263 15.9565 15.4775 15.878 15.4123 15.8143L13.2537 13.7099L16.2365 13.2765C16.3268 13.2634 16.4125 13.2286 16.4863 13.175C16.5601 13.1214 16.6197 13.0506 16.66 12.9689L17.9943 10.2662L19.3281 12.9689C19.3685 13.0507 19.4281 13.1214 19.502 13.175C19.5758 13.2286 19.6616 13.2634 19.7519 13.2765L22.7346 13.7099L20.5761 15.8143Z" fill="#E0933E"/>
<path d="M29.0457 4.87891H6.95435C6.00537 4.87997 5.09557 5.25742 4.42454 5.92844C3.75351 6.59947 3.37606 7.50928 3.375 8.45826V21.6083C3.37606 22.5573 3.75351 23.4671 4.42454 24.1381C5.09557 24.8092 6.00537 25.1866 6.95435 25.1877H13.2468V30.5578C13.2467 30.6691 13.2797 30.7778 13.3415 30.8703C13.4033 30.9628 13.4912 31.0349 13.594 31.0775C13.6968 31.1201 13.8099 31.1312 13.919 31.1095C14.0281 31.0878 14.1283 31.0342 14.207 30.9555L19.9742 25.1877H29.0457C29.9946 25.1866 30.9044 24.8092 31.5755 24.1381C32.2465 23.4671 32.6239 22.5573 32.625 21.6083V8.45826C32.6239 7.50928 32.2465 6.59948 31.5755 5.92845C30.9044 5.25742 29.9946 4.87997 29.0457 4.87891ZM31.5 21.6083C31.4993 22.259 31.2405 22.8829 30.7803 23.343C30.3202 23.8032 29.6964 24.062 29.0457 24.0627H19.7413C19.5922 24.0627 19.4491 24.122 19.3436 24.2275L14.3718 29.1999V24.6252C14.3718 24.5513 14.3572 24.4782 14.329 24.4099C14.3007 24.3417 14.2593 24.2796 14.2071 24.2274C14.1548 24.1752 14.0928 24.1337 14.0245 24.1055C13.9563 24.0772 13.8831 24.0627 13.8093 24.0627H6.95435C6.30364 24.062 5.67978 23.8032 5.21966 23.343C4.75953 22.8829 4.50072 22.2591 4.5 21.6083V8.45826C4.50072 7.80754 4.75953 7.18369 5.21966 6.72356C5.67978 6.26344 6.30364 6.00463 6.95435 6.00391H29.0457C29.6964 6.00463 30.3202 6.26344 30.7803 6.72357C31.2405 7.18369 31.4993 7.80754 31.5 8.45826V21.6083Z" fill="#E0933E"/>
</svg>
