<svg width="36" height="36" viewBox="0 0 36 36" fill="none" xmlns="http://www.w3.org/2000/svg">
<g clip-path="url(#clip0_188_296)">
<path d="M31.988 20.8742C32.2341 20.7925 32.3996 20.5628 32.3996 20.3047V15.6945C32.3996 15.4358 32.2341 15.2067 31.988 15.125L29.2467 14.2165L28.6244 12.7186L29.7849 10.2746C29.8777 10.0783 29.8581 9.84687 29.7321 9.66934C28.7929 8.34922 27.6482 7.2043 26.3293 6.2665C26.1518 6.14053 25.9203 6.12148 25.724 6.21377L23.2801 7.3748L21.7815 6.75254L20.8736 4.01123C20.7931 3.76514 20.5634 3.59961 20.3047 3.59961H15.6945C15.4358 3.59961 15.2062 3.76514 15.125 4.01123L14.2171 6.75254L12.7186 7.3748L10.2746 6.21318C10.0777 6.12148 9.84687 6.13994 9.66934 6.2665C8.34922 7.20488 7.20488 8.35039 6.2665 9.66992C6.14053 9.84687 6.12031 10.0783 6.21377 10.2746L7.37422 12.7186L6.75195 14.2165L4.01064 15.125C3.76514 15.2067 3.59961 15.4364 3.59961 15.6945V20.3047C3.59961 20.5634 3.76514 20.7925 4.01123 20.8742L6.72383 21.7725C6.89902 22.2969 7.11318 22.8104 7.36162 23.3085L6.21377 25.7246C6.1209 25.9209 6.14053 26.1523 6.2665 26.3293C7.2043 27.6488 8.3498 28.7937 9.66934 29.7327C9.84629 29.8575 10.0771 29.8777 10.2746 29.7854L12.6907 28.6382C13.1888 28.8872 13.7029 29.1008 14.2268 29.276L15.125 31.9886C15.2062 32.2341 15.4358 32.3996 15.6945 32.3996H20.3047C20.5634 32.3996 20.7931 32.2341 20.8742 31.988L21.7725 29.2754C22.2963 29.1002 22.8104 28.8866 23.3085 28.6376L25.7246 29.7849C25.9215 29.8777 26.1523 29.8575 26.3299 29.7321C27.6494 28.7943 28.7937 27.6488 29.7327 26.3287C29.8587 26.1518 29.8789 25.9203 29.7854 25.724L28.6376 23.3079C28.8872 22.8093 29.1008 22.2951 29.276 21.7719L31.988 20.8742ZM28.6095 20.7295C28.4246 20.7907 28.2813 20.9378 28.2242 21.1238C28.0268 21.7713 27.7628 22.4079 27.4388 23.0149C27.3494 23.1825 27.3453 23.3823 27.4262 23.5537L28.5482 25.9159C27.7977 26.9149 26.9149 27.7977 25.9165 28.5477L23.5543 27.4262C23.3817 27.3447 23.1819 27.3488 23.0149 27.4388C22.4085 27.7622 21.7725 28.0262 21.1238 28.2248C20.9372 28.2813 20.7901 28.4252 20.7289 28.6101L19.8717 31.1996H16.1275L15.2697 28.6095C15.2085 28.4246 15.0614 28.2805 14.8748 28.2242C14.2262 28.0262 13.5896 27.7616 12.9843 27.4382C12.8155 27.3488 12.6163 27.3447 12.4443 27.4256L10.0821 28.5471C9.08369 27.7971 8.20039 26.9138 7.45039 25.9153L8.57246 23.5531C8.65391 23.3817 8.64922 23.1819 8.55986 23.0138C8.2376 22.4091 7.97305 21.773 7.775 21.1232C7.71787 20.9366 7.57461 20.7895 7.38975 20.7289L4.79961 19.8711V16.1281L7.38975 15.2697C7.55469 15.2149 7.68857 15.0907 7.75508 14.9305L8.58506 12.9327C8.65039 12.7754 8.64629 12.5984 8.57305 12.4455L7.45098 10.0833C8.20098 9.08486 9.08428 8.20156 10.0827 7.45098L12.4449 8.57305C12.5979 8.64629 12.7754 8.65039 12.9321 8.58564L14.9305 7.75566C15.0913 7.68916 15.2155 7.55527 15.2703 7.39033L16.1275 4.79961H19.8717L20.7289 7.38975C20.7837 7.55469 20.9079 7.68857 21.0687 7.75508L23.0671 8.58506C23.2238 8.6498 23.4008 8.64629 23.5543 8.57246L25.9165 7.45098C26.9144 8.20039 27.7971 9.08369 28.5482 10.0827L27.4262 12.4449C27.3529 12.5984 27.3488 12.7754 27.4136 12.9321L28.2427 14.9299C28.3095 15.0907 28.4431 15.2149 28.6083 15.2691L31.1996 16.1281V19.8711L28.6095 20.7295Z" fill="#E0933E"/>
<path d="M18.0004 8.40039C12.7073 8.40039 8.40039 12.7073 8.40039 18.0004C8.40039 23.2935 12.7073 27.6004 18.0004 27.6004C23.2935 27.6004 27.6004 23.2935 27.6004 18.0004C27.6004 12.7073 23.2935 8.40039 18.0004 8.40039ZM18.0004 26.4004C13.3683 26.4004 9.60039 22.6325 9.60039 18.0004C9.60039 13.3683 13.3683 9.60039 18.0004 9.60039C22.6325 9.60039 26.4004 13.3683 26.4004 18.0004C26.4004 22.6325 22.6325 26.4004 18.0004 26.4004Z" fill="#E0933E"/>
<path d="M22.2449 13.2451C22.0858 13.2451 21.9329 13.3081 21.8207 13.4209L16.1998 19.0415L13.9457 16.7874C13.711 16.5527 13.3319 16.5527 13.0973 16.7874L10.9756 18.9085C10.8628 19.0213 10.7998 19.1736 10.7998 19.3333C10.7998 19.4927 10.8628 19.6453 10.9756 19.7575L15.6423 24.4242C15.7937 24.5754 16.0059 24.6305 16.1998 24.5856C16.2437 24.5953 16.288 24.6 16.3331 24.6C16.4866 24.6 16.6401 24.5411 16.7573 24.4242L24.7905 16.3907C25.0252 16.1561 25.0252 15.777 24.7905 15.5423L22.6691 13.4209C22.5569 13.3087 22.4037 13.2451 22.2449 13.2451ZM16.2171 23.2667C16.2112 23.2667 16.2057 23.2667 16.1998 23.2667C16.1939 23.2667 16.1884 23.2667 16.1825 23.2667L12.2482 19.3327L13.5215 18.0601L15.7756 20.3142C16.0103 20.5488 16.3894 20.5488 16.624 20.3142L22.2449 14.6933L23.5179 15.9665L16.2171 23.2667Z" fill="#E0933E"/>
<path d="M17.4004 0H18.6004V2.4H17.4004V0Z" fill="#E0933E"/>
<path d="M17.4004 33.5996H18.6004V35.9996H17.4004V33.5996Z" fill="#E0933E"/>
<path d="M33.5996 17.4004H35.9996V18.6004H33.5996V17.4004Z" fill="#E0933E"/>
<path d="M0 17.4004H2.4V18.6004H0V17.4004Z" fill="#E0933E"/>
<path d="M28.6074 6.54648L30.3046 4.84961L31.153 5.69834L29.4559 7.39521L28.6074 6.54648Z" fill="#E0933E"/>
<path d="M4.84668 30.305L6.54414 28.6084L7.39229 29.4568L5.69512 31.1537L4.84668 30.305Z" fill="#E0933E"/>
<path d="M28.6064 29.4532L29.4546 28.6045L31.1521 30.3014L30.3036 31.1498L28.6064 29.4532Z" fill="#E0933E"/>
<path d="M4.84766 5.69609L5.69609 4.84766L7.39355 6.54424L6.54512 7.39297L4.84766 5.69609Z" fill="#E0933E"/>
<path d="M0 0H1.2V1.2H0V0Z" fill="#E0933E"/>
<path d="M0 2.40039H1.2V3.60039H0V2.40039Z" fill="#E0933E"/>
<path d="M2.40039 0H3.60039V1.2H2.40039V0Z" fill="#E0933E"/>
<path d="M34.7998 34.7998H35.9998V35.9998H34.7998V34.7998Z" fill="#E0933E"/>
<path d="M34.7998 32.4004H35.9998V33.6004H34.7998V32.4004Z" fill="#E0933E"/>
<path d="M32.4004 34.7998H33.6004V35.9998H32.4004V34.7998Z" fill="#E0933E"/>
</g>
<defs>
<clipPath id="clip0_188_296">
<rect width="36" height="36" fill="white"/>
</clipPath>
</defs>
</svg>
