<svg width="36" height="36" viewBox="0 0 36 36" fill="none" xmlns="http://www.w3.org/2000/svg">
<g clip-path="url(#clip0_188_314)">
<path d="M15.0083 2.40723C8.05215 2.40723 2.41309 8.04629 2.41309 15.0025C2.41309 21.9586 8.05215 27.5977 15.0083 27.5977C21.9645 27.5977 27.6035 21.9586 27.6035 15.0025C27.596 8.04944 21.9613 2.4148 15.0083 2.40723ZM15.0083 3.60677C18.7131 3.6097 22.1848 5.41531 24.3144 8.44694L22.8149 9.94637C22.4501 9.72558 22.0323 9.60742 21.6058 9.6045C20.2808 9.6045 19.2067 10.6786 19.2067 12.0036C19.2088 12.4306 19.3263 12.849 19.5468 13.2145L15.6195 17.1418C14.8758 16.6884 13.9412 16.6884 13.1976 17.1418L10.4698 14.4141C10.6903 14.0485 10.8078 13.6301 10.8099 13.2031C10.8116 11.8808 9.74096 10.8075 8.41861 10.8058C7.325 10.8045 6.36949 11.5442 6.09689 12.6034H3.87173C5.00733 7.35932 9.64274 3.61464 15.0083 3.60677ZM22.8054 12.0036C22.8054 12.6661 22.2683 13.2031 21.6058 13.2031C20.9433 13.2031 20.4063 12.6661 20.4063 12.0036C20.4063 11.3411 20.9433 10.804 21.6058 10.804C22.2683 10.804 22.8054 11.3411 22.8054 12.0036ZM15.6081 19.2009C15.6081 19.8634 15.0711 20.4004 14.4085 20.4004C13.746 20.4004 13.209 19.8634 13.209 19.2009C13.209 18.5383 13.746 18.0013 14.4085 18.0013C15.0711 18.0013 15.6081 18.5383 15.6081 19.2009ZM9.61036 13.2031C9.61036 13.8657 9.07334 14.4027 8.41081 14.4027C7.74829 14.4027 7.21127 13.8657 7.21127 13.2031C7.21127 12.5406 7.74829 12.0036 8.41081 12.0036C9.07334 12.0036 9.61036 12.5406 9.61036 13.2031ZM20.5453 24.9666C18.8515 25.9071 16.9457 26.3998 15.0083 26.3981C8.71894 26.4023 3.6169 21.3073 3.61263 15.018C3.61233 14.6121 3.63377 14.2064 3.67681 13.8028H6.09689C6.36956 14.8588 7.3202 15.598 8.41081 15.6021C8.83777 15.6 9.25619 15.4826 9.62175 15.2621L12.3495 17.9898C12.129 18.3554 12.0115 18.7738 12.0094 19.2008C12.0094 20.5258 13.0836 21.5999 14.4085 21.5999C15.7335 21.5999 16.8076 20.5258 16.8076 19.2008C16.8055 18.7738 16.688 18.3554 16.4676 17.9898L20.3949 14.0625C20.7604 14.283 21.1788 14.4005 21.6058 14.4026C22.9308 14.4026 24.0049 13.3285 24.0049 12.0035C24.0028 11.5765 23.8853 11.1581 23.6648 10.7926L24.9723 9.48567C28.0248 14.9832 26.0427 21.9142 20.5453 24.9666Z" fill="#E0933E"/>
<path d="M30.0023 6.00551C31.0929 6.00139 32.0435 5.26224 32.3162 4.20619H36V3.00665H32.3162C32.0435 1.9506 31.0929 1.21145 30.0023 1.20733C28.6773 1.20733 27.6032 2.28145 27.6032 3.60642C27.6053 4.03338 27.7227 4.4518 27.9432 4.81736L26.8894 5.87116C21.8472 -0.697922 12.4344 -1.9357 5.8653 3.10651C-0.703781 8.14872 -1.94156 17.5616 3.10065 24.1307C7.86015 30.3314 16.5847 31.8355 23.1457 27.5865L24.9558 29.3966L25.8038 30.2447L30.632 35.0729C31.86 36.3008 33.8508 36.3008 35.0787 35.0729C36.3067 33.8449 36.3067 31.8541 35.0787 30.6262L30.2506 25.798L29.4025 24.9499L27.5924 23.1398C30.8056 18.1905 30.8056 11.8138 27.5924 6.86439L28.7919 5.66484C29.1572 5.88541 29.5755 6.00311 30.0023 6.00551ZM30.0023 2.40688C30.6648 2.40688 31.2018 2.9439 31.2018 3.60642C31.2018 4.26894 30.6648 4.80597 30.0023 4.80597C29.3397 4.80597 28.8027 4.26894 28.8027 3.60642C28.8027 2.9439 29.3398 2.40688 30.0023 2.40688ZM34.2306 31.4743C34.9988 32.2252 35.0128 33.4567 34.2619 34.2248C33.511 34.993 32.2795 35.007 31.5114 34.2561C31.5008 34.2458 31.4904 34.2354 31.4801 34.2248L26.6519 29.3966L29.4025 26.6461L34.2306 31.4743ZM28.5544 25.798L25.8038 28.5486L24.1437 26.8884C24.2282 26.8236 24.3074 26.7522 24.3908 26.6857C24.4741 26.6191 24.5707 26.5393 24.6601 26.4644C24.7914 26.354 24.921 26.2424 25.0481 26.1279C25.1135 26.0679 25.1759 26.0079 25.2401 25.9479C25.486 25.7176 25.7241 25.4795 25.9544 25.2336C26.0144 25.1694 26.0743 25.1071 26.1343 25.0417C26.2489 24.9145 26.3604 24.785 26.4708 24.6536C26.546 24.5649 26.6198 24.4751 26.6921 24.3843C26.7581 24.3016 26.8295 24.2224 26.8942 24.1378L28.5544 25.798ZM26.2285 23.0121C26.0396 23.276 25.8446 23.5345 25.6389 23.7834C25.5789 23.8559 25.5148 23.9261 25.453 23.9975C25.2694 24.211 25.0799 24.4182 24.8844 24.6189C24.7992 24.7068 24.7126 24.7934 24.6247 24.8786C24.4247 25.0741 24.2177 25.2636 24.0033 25.4471C23.932 25.5071 23.8618 25.5725 23.7892 25.6331C23.5403 25.8388 23.2818 26.0337 23.0179 26.2226C16.8091 30.6583 8.1799 29.2209 3.74421 23.0121C-0.691486 16.8032 0.745944 8.17406 6.95479 3.73837C13.1636 -0.697322 21.7928 0.740033 26.2285 6.94895C29.6608 11.7533 29.6608 18.2077 26.2285 23.0121Z" fill="#E0933E"/>
</g>
<defs>
<clipPath id="clip0_188_314">
<rect width="36" height="36" fill="white"/>
</clipPath>
</defs>
</svg>
