<svg width="36" height="36" viewBox="0 0 36 36" fill="none" xmlns="http://www.w3.org/2000/svg">
<g clip-path="url(#clip0_188_351)">
<path d="M15.6776 6.96777C14.0769 6.96777 12.7744 8.27026 12.7744 9.871V14.5162C12.7744 14.8365 13.0338 15.0968 13.3551 15.0968H22.6454C22.9666 15.0968 23.226 14.8365 23.226 14.5162V9.871C23.226 8.27026 21.9235 6.96777 20.3228 6.96777H15.6776ZM22.0647 9.871V13.9355H20.9034V11.6129H19.7422V13.9355H16.2583V11.6129H15.097V13.9355H13.9357V9.871C13.9357 8.91072 14.7174 8.12906 15.6776 8.12906H20.3228C21.2831 8.12906 22.0647 8.91072 22.0647 9.871Z" fill="#E0933E"/>
<path d="M28.4517 26.1293C28.4517 26.4496 28.7111 26.7099 29.0324 26.7099H32.5162C32.8374 26.7099 33.0969 26.4496 33.0969 26.1293V21.4841C33.0969 21.1637 32.8374 20.9034 32.5162 20.9034H29.0324C28.7111 20.9034 28.4517 21.1637 28.4517 21.4841V22.0647H27.414C24.821 22.0647 22.2818 21.7211 19.8418 21.0696C23.438 19.6324 26.7492 17.4987 29.613 14.7369V16.2583H30.7743V13.3551C30.7743 13.0347 30.5149 12.7744 30.1936 12.7744H27.2904V13.9357H28.7715C25.6542 16.9308 21.9881 19.1544 18.0001 20.5111C14.0121 19.1544 10.346 16.9308 7.22867 13.9357H8.70977V12.7744H5.80655C5.48532 12.7744 5.2259 13.0347 5.2259 13.3551V16.2583H6.38719V14.7369C9.25101 17.4978 12.5622 19.6324 16.1584 21.069C13.7184 21.7211 11.1792 22.0647 8.58616 22.0647H7.54848V21.4841C7.54848 21.1637 7.28906 20.9034 6.96784 20.9034H3.48397C3.16274 20.9034 2.90332 21.1637 2.90332 21.4841V26.1293C2.90332 26.4496 3.16274 26.7099 3.48397 26.7099H6.96784C7.28906 26.7099 7.54848 26.4496 7.54848 26.1293V23.226H8.58616C11.833 23.226 14.9993 22.7103 18.0001 21.7344C21.0009 22.7103 24.1672 23.226 27.414 23.226H28.4517V24.3873H23.2259C19.2345 24.3873 15.9656 27.5037 15.703 31.4293C14.6909 31.6803 13.9356 32.5889 13.9356 33.6776C13.9356 34.9586 14.9772 36.0002 16.2582 36.0002C17.5391 36.0002 18.5807 34.9586 18.5807 33.6776C18.5807 32.6076 17.8498 31.7134 16.8638 31.4449C17.1158 28.1522 19.8699 25.5486 23.2259 25.5486H28.4517V26.1293ZM29.613 22.0647H31.9356V25.5486H29.613V22.0647ZM6.38719 25.5486H4.06461V22.0647H6.38719V25.5486ZM17.4194 33.6776C17.4194 34.3181 16.8986 34.8389 16.2582 34.8389C15.6177 34.8389 15.0969 34.3181 15.0969 33.6776C15.0969 33.0372 15.6177 32.5164 16.2582 32.5164C16.8986 32.5164 17.4194 33.0372 17.4194 33.6776Z" fill="#E0933E"/>
<path d="M33.0972 27.8711H28.4521C26.8513 27.8711 25.5488 29.1736 25.5488 30.7743V35.4195C25.5488 35.7399 25.8082 36.0001 26.1295 36.0001H35.4198C35.741 36.0001 36.0004 35.7399 36.0004 35.4195V30.7743C36.0004 29.1736 34.698 27.8711 33.0972 27.8711ZM34.8392 34.8388H33.6779V32.5163H32.5166V34.8388H29.0327V32.5163H27.8714V34.8388H26.7101V30.7743C26.7101 29.814 27.4918 29.0324 28.4521 29.0324H33.0972C34.0575 29.0324 34.8392 29.814 34.8392 30.7743V34.8388Z" fill="#E0933E"/>
<path d="M7.54839 27.8711H2.90323C1.30248 27.8711 0 29.1736 0 30.7743V35.4195C0 35.7399 0.259419 36.0001 0.580645 36.0001H9.87097C10.1922 36.0001 10.4516 35.7399 10.4516 35.4195V30.7743C10.4516 29.1736 9.14913 27.8711 7.54839 27.8711ZM9.29032 34.8388H8.12903V32.5163H6.96774V34.8388H3.48387V32.5163H2.32258V34.8388H1.16129V30.7743C1.16129 29.814 1.94295 29.0324 2.90323 29.0324H7.54839C8.50866 29.0324 9.29032 29.814 9.29032 30.7743V34.8388Z" fill="#E0933E"/>
<path d="M31.1843 8.29883L30.3633 9.1199L31.6947 10.4513L30.3633 11.7827L31.1843 12.6038L32.5158 11.2724L33.8472 12.6038L34.6682 11.7827L33.3368 10.4513L34.6682 9.1199L33.8472 8.29883L32.5158 9.63023L31.1843 8.29883Z" fill="#E0933E"/>
<path d="M5.8068 2.00221C7.67887 3.68942 10.1041 4.64516 12.6648 4.64516H15.6778V5.22581C15.6778 5.54618 15.9372 5.80645 16.2584 5.80645H19.7423C20.0635 5.80645 20.3229 5.54618 20.3229 5.22581V3.48387H20.7218C24.8031 3.48387 28.6402 5.07299 31.5253 7.95892L32.3464 7.13785C29.2416 4.03248 25.1132 2.32258 20.7218 2.32258H20.3229V0.580645C20.3229 0.26027 20.0635 0 19.7423 0H16.2584C15.9372 0 15.6778 0.26027 15.6778 0.580645V3.48387H12.6648C10.4055 3.48387 8.26462 2.64437 6.60802 1.16129H8.12938V0H5.22615C4.90493 0 4.64551 0.26027 4.64551 0.580645V3.48387H5.8068V2.00221ZM16.8391 1.16129H19.1616V4.64516H16.8391V1.16129Z" fill="#E0933E"/>
</g>
<defs>
<clipPath id="clip0_188_351">
<rect width="36" height="36" fill="white"/>
</clipPath>
</defs>
</svg>
