<svg width="36" height="36" viewBox="0 0 36 36" fill="none" xmlns="http://www.w3.org/2000/svg">
<path d="M12.6095 32.0715H8.78738C8.18863 32.0715 7.70166 31.5846 7.70166 30.9858V14.3132C7.70166 14.0232 7.93677 13.7881 8.22681 13.7881C8.51712 13.7881 8.75223 14.0232 8.75223 14.3132V30.9858C8.75223 31.0053 8.76788 31.021 8.78738 31.021H12.6095C12.8998 31.021 13.1349 31.2561 13.1349 31.5461C13.1349 31.8364 12.8998 32.0715 12.6095 32.0715Z" fill="#E0933E"/>
<path d="M29.6189 3.97293H25.0966V3.3978C25.0966 2.87622 24.6725 2.45215 24.1512 2.45215H21.0325C20.74 1.02557 19.4889 0 18.0217 0C16.5547 0 15.3037 1.02557 15.0112 2.45215H11.8924C11.3708 2.45215 10.9468 2.87622 10.9468 3.3978V3.97321H6.42453C5.55716 3.97321 4.85156 4.6788 4.85156 5.54617V34.4268C4.85156 35.2944 5.55716 36 6.42453 36H29.6191C30.4865 36 31.1921 35.2941 31.1921 34.4268V5.54617C31.1921 4.6788 30.4865 3.97293 29.6189 3.97293ZM11.9976 3.50272H15.0982C15.5594 3.50272 15.9505 3.17615 16.0285 2.72626C16.1963 1.75534 17.0349 1.05057 18.022 1.05057C19.0091 1.05057 19.8474 1.75534 20.0152 2.72626C20.0932 3.17615 20.4843 3.50272 20.9454 3.50272H24.0461V7.74426H11.9976V3.50272ZM30.1415 34.4268C30.1415 34.7149 29.907 34.9494 29.6189 34.9494H6.42453C6.13641 34.9494 5.90213 34.7149 5.90213 34.4268V5.54617C5.90213 5.25806 6.13641 5.02377 6.42453 5.02377H10.9468V6.0672H8.78741C8.18866 6.0672 7.70169 6.55417 7.70169 7.15292V11.8735C7.70169 12.1638 7.9368 12.3989 8.22684 12.3989C8.51715 12.3989 8.75226 12.1638 8.75226 11.8735V7.15292C8.75226 7.1337 8.76819 7.11777 8.78741 7.11777H10.9468V7.84918C10.9468 8.37076 11.3711 8.79483 11.8924 8.79483H24.1512C24.6725 8.79483 25.0966 8.37076 25.0966 7.84918V7.11777H27.2563C27.2755 7.11777 27.2911 7.1337 27.2911 7.15292V30.9858C27.2911 31.0053 27.2755 31.021 27.2563 31.021H15.0098C14.7198 31.021 14.4846 31.2561 14.4846 31.5464C14.4846 31.8365 14.7198 32.0716 15.0098 32.0716H27.2563C27.855 32.0716 28.342 31.5846 28.342 30.9858V7.15292C28.342 6.55417 27.855 6.0672 27.2563 6.0672H25.0966V5.02377H29.6189C29.907 5.02377 30.1415 5.25806 30.1415 5.54617V34.4268Z" fill="#E0933E"/>
<path d="M11.6289 11.4358H12.9569C13.2469 11.4358 13.4821 11.2007 13.4821 10.9104C13.4821 10.6204 13.2469 10.3853 12.9569 10.3853H11.6289C11.3386 10.3853 11.1035 10.6204 11.1035 10.9104C11.1035 11.2007 11.3386 11.4358 11.6289 11.4358Z" fill="#E0933E"/>
<path d="M14.5059 11.4358H17.2066C17.4966 11.4358 17.7318 11.2007 17.7318 10.9104C17.7318 10.6204 17.4966 10.3853 17.2066 10.3853H14.5059C14.2159 10.3853 13.9805 10.6204 13.9805 10.9104C13.9805 11.2007 14.2159 11.4358 14.5059 11.4358Z" fill="#E0933E"/>
<path d="M11.6289 13.4705H17.4476C17.7376 13.4705 17.973 13.2354 17.973 12.9453C17.973 12.6553 17.7379 12.4199 17.4476 12.4199H11.6289C11.3386 12.4199 11.1035 12.6553 11.1035 12.9453C11.1035 13.2354 11.3386 13.4705 11.6289 13.4705Z" fill="#E0933E"/>
<path d="M19.2691 13.4705H21.2301C21.5204 13.4705 21.7556 13.2354 21.7556 12.9453C21.7556 12.6553 21.5204 12.4199 21.2301 12.4199H19.2691C18.9788 12.4199 18.7437 12.6553 18.7437 12.9453C18.7437 13.2354 18.9788 13.4705 19.2691 13.4705Z" fill="#E0933E"/>
<path d="M12.6098 15.312C11.6927 15.312 10.9468 16.058 10.9468 16.9748C10.9468 17.8916 11.6927 18.6376 12.6098 18.6376C13.5266 18.6376 14.2726 17.8916 14.2726 16.9748C14.2726 16.058 13.5266 15.312 12.6098 15.312ZM12.6098 17.587C12.272 17.587 11.9976 17.3123 11.9976 16.9748C11.9976 16.6372 12.272 16.3626 12.6098 16.3626C12.9471 16.3626 13.2218 16.6372 13.2218 16.9748C13.2218 17.3123 12.9471 17.587 12.6098 17.587Z" fill="#E0933E"/>
<path d="M15.0952 16.9749C15.0952 17.2652 15.3303 17.5003 15.6206 17.5003H23.9203C24.2103 17.5003 24.4454 17.2649 24.4454 16.9749C24.4454 16.6848 24.2103 16.4497 23.9203 16.4497H15.6206C15.3303 16.4494 15.0952 16.6848 15.0952 16.9749Z" fill="#E0933E"/>
<path d="M15.6206 22.0047H22.0202C22.3102 22.0047 22.5453 21.7693 22.5453 21.4792C22.5453 21.1892 22.3102 20.9541 22.0202 20.9541H15.6206C15.3303 20.9541 15.0952 21.1892 15.0952 21.4792C15.0952 21.7693 15.3303 22.0047 15.6206 22.0047Z" fill="#E0933E"/>
<path d="M15.6206 19.7527H20.506C20.796 19.7527 21.0311 19.5173 21.0311 19.2273C21.0311 18.9373 20.796 18.7021 20.506 18.7021H15.6206C15.3303 18.7021 15.0952 18.9373 15.0952 19.2273C15.0952 19.5173 15.3303 19.7527 15.6206 19.7527Z" fill="#E0933E"/>
<path d="M12.6098 22.9233C11.6927 22.9233 10.9468 23.6693 10.9468 24.5861C10.9468 25.5032 11.6927 26.2489 12.6098 26.2489C13.5266 26.2489 14.2726 25.5029 14.2726 24.5861C14.2726 23.6693 13.5266 22.9233 12.6098 22.9233ZM12.6098 25.1983C12.272 25.1983 11.9976 24.9237 11.9976 24.5861C11.9976 24.2486 12.272 23.9739 12.6098 23.9739C12.9471 23.9739 13.2218 24.2486 13.2218 24.5861C13.2218 24.9237 12.9471 25.1983 12.6098 25.1983Z" fill="#E0933E"/>
<path d="M23.9203 24.061H15.6206C15.3303 24.061 15.0952 24.2961 15.0952 24.5862C15.0952 24.8762 15.3303 25.1116 15.6206 25.1116H23.9203C24.2103 25.1116 24.4457 24.8762 24.4457 24.5862C24.4457 24.2961 24.2103 24.061 23.9203 24.061Z" fill="#E0933E"/>
<path d="M22.0202 28.5654H15.6206C15.3303 28.5654 15.0952 28.8005 15.0952 29.0906C15.0952 29.3806 15.3303 29.616 15.6206 29.616H22.0202C22.3102 29.616 22.5453 29.3806 22.5453 29.0906C22.5453 28.8005 22.3102 28.5654 22.0202 28.5654Z" fill="#E0933E"/>
<path d="M15.6206 27.364H20.506C20.796 27.364 21.0311 27.1289 21.0311 26.8386C21.0311 26.5486 20.796 26.3135 20.506 26.3135H15.6206C15.3303 26.3135 15.0952 26.5486 15.0952 26.8386C15.0952 27.1289 15.3303 27.364 15.6206 27.364Z" fill="#E0933E"/>
</svg>
