<svg width="36" height="36" viewBox="0 0 36 36" fill="none" xmlns="http://www.w3.org/2000/svg">
<g clip-path="url(#clip0_188_373)">
<path d="M33.2466 15.2466C32.6144 15.2479 32.0019 15.4662 31.5115 15.865C31.021 16.2638 30.6824 16.8189 30.5522 17.4375H25.29C25.1713 15.8908 24.5613 14.4225 23.5491 13.2469L27.2813 9.52033C27.8097 9.86722 28.4416 10.0211 29.0703 9.95604C29.699 9.89096 30.2861 9.6109 30.7322 9.16314C31.0993 8.79555 31.3547 8.33152 31.4691 7.82476C31.5834 7.31801 31.5518 6.78924 31.3781 6.29966C31.2044 5.81008 30.8955 5.37971 30.4874 5.05836C30.0792 4.737 29.5884 4.5378 29.0717 4.48381C28.555 4.42982 28.0336 4.52324 27.5679 4.75327C27.1021 4.98331 26.711 5.34054 26.4398 5.78362C26.1686 6.2267 26.0284 6.73753 26.0355 7.25697C26.0425 7.77641 26.1966 8.28323 26.4797 8.71877L22.7531 12.451C21.5776 11.4387 20.1093 10.8288 18.5625 10.71V5.44783C19.2295 5.30865 19.8211 4.92714 20.2231 4.37707C20.6251 3.82699 20.8089 3.14742 20.7389 2.46972C20.6689 1.79201 20.3502 1.16431 19.8443 0.707964C19.3384 0.251614 18.6813 -0.000976563 18 -0.000976562C17.3187 -0.000976563 16.6616 0.251614 16.1557 0.707964C15.6498 1.16431 15.3311 1.79201 15.2611 2.46972C15.1912 3.14742 15.375 3.82699 15.7769 4.37707C16.1789 4.92714 16.7706 5.30865 17.4375 5.44783V10.71C15.8908 10.8288 14.4225 11.4387 13.2469 12.451L9.52033 8.71877C9.80457 8.28366 9.95972 7.77694 9.96782 7.25728C9.97591 6.73763 9.83662 6.22632 9.56608 5.78257C9.29554 5.33882 8.90481 4.9808 8.43917 4.74998C7.97352 4.51916 7.45201 4.42498 6.93504 4.47835C6.41808 4.53172 5.92681 4.73046 5.51814 5.05155C5.10948 5.37264 4.80014 5.80294 4.62597 6.2926C4.45179 6.78226 4.41991 7.31125 4.534 7.81829C4.6481 8.32532 4.90351 8.78966 5.27064 9.15752C5.71592 9.60545 6.30204 9.88613 6.93017 9.95222C7.5583 10.0183 8.19001 9.86578 8.71877 9.52033L12.451 13.2469C11.4387 14.4225 10.8288 15.8908 10.71 17.4375H5.44783C5.30865 16.7706 4.92714 16.1789 4.37707 15.7769C3.82699 15.375 3.14742 15.1912 2.46972 15.2611C1.79201 15.3311 1.16431 15.6498 0.707964 16.1557C0.251614 16.6616 -0.000976563 17.3187 -0.000976562 18C-0.000976563 18.6813 0.251614 19.3384 0.707964 19.8443C1.16431 20.3502 1.79201 20.6689 2.46972 20.7389C3.14742 20.8089 3.82699 20.6251 4.37707 20.2231C4.92714 19.8211 5.30865 19.2295 5.44783 18.5625H10.71C10.8288 20.1093 11.4387 21.5776 12.451 22.7531L8.71877 26.4797C8.14902 26.1082 7.46183 25.9609 6.78987 26.0664C6.11791 26.1718 5.50886 26.5225 5.08031 27.0507C4.65175 27.5789 4.4341 28.2471 4.46938 28.9264C4.50466 29.6057 4.79036 30.2478 5.27132 30.7287C5.75228 31.2097 6.39438 31.4954 7.07365 31.5307C7.75291 31.5659 8.42116 31.3483 8.94935 30.9197C9.47754 30.4912 9.82822 29.8821 9.93367 29.2102C10.0391 28.5382 9.89186 27.851 9.52033 27.2813L13.2469 23.5491C14.4225 24.5613 15.8908 25.1713 17.4375 25.29V30.5522C16.7706 30.6914 16.1789 31.0729 15.7769 31.623C15.375 32.173 15.1912 32.8526 15.2611 33.5303C15.3311 34.208 15.6498 34.8357 16.1557 35.2921C16.6616 35.7484 17.3187 36.001 18 36.001C18.6813 36.001 19.3384 35.7484 19.8443 35.2921C20.3502 34.8357 20.6689 34.208 20.7389 33.5303C20.8089 32.8526 20.6251 32.173 20.2231 31.623C19.8211 31.0729 19.2295 30.6914 18.5625 30.5522V25.29C20.1093 25.1713 21.5776 24.5613 22.7531 23.5491L26.4797 27.2813C26.1082 27.851 25.9609 28.5382 26.0664 29.2102C26.1718 29.8821 26.5225 30.4912 27.0507 30.9197C27.5789 31.3483 28.2471 31.5659 28.9264 31.5307C29.6057 31.4954 30.2478 31.2097 30.7287 30.7287C31.2097 30.2478 31.4954 29.6057 31.5307 28.9264C31.5659 28.2471 31.3483 27.5789 30.9197 27.0507C30.4912 26.5225 29.8821 26.1718 29.2102 26.0664C28.5382 25.9609 27.851 26.1082 27.2813 26.4797L23.5491 22.7531C24.5613 21.5776 25.1713 20.1093 25.29 18.5625H30.5522C30.6585 19.0721 30.9071 19.541 31.2692 19.915C31.6312 20.289 32.0918 20.5528 32.5976 20.6756C33.1034 20.7985 33.6337 20.7755 34.127 20.6093C34.6202 20.443 35.0563 20.1404 35.3845 19.7364C35.7127 19.3324 35.9198 18.8437 35.9815 18.3268C36.0433 17.81 35.9573 17.2862 35.7336 16.8163C35.5098 16.3463 35.1574 15.9494 34.7172 15.6716C34.277 15.3938 33.7671 15.2464 33.2466 15.2466ZM27.6216 6.06658C27.8882 5.79838 28.2397 5.631 28.616 5.59296C28.9923 5.55492 29.3701 5.64859 29.6851 5.85799C30 6.06739 30.2326 6.37955 30.3431 6.74125C30.4536 7.10295 30.4352 7.49179 30.2911 7.84146C30.1469 8.19113 29.886 8.47997 29.5527 8.65874C29.2194 8.8375 28.8344 8.89512 28.4634 8.82177C28.0924 8.74841 27.7583 8.54863 27.5181 8.25648C27.2779 7.96433 27.1465 7.59791 27.1463 7.2197C27.1471 7.00513 27.1902 6.79282 27.2733 6.59495C27.3563 6.39707 27.4775 6.21752 27.63 6.06658H27.6216ZM8.37002 8.37002C8.06388 8.67418 7.64985 8.8449 7.2183 8.8449C6.78675 8.8449 6.37272 8.67418 6.06658 8.37002C5.83891 8.14225 5.68388 7.85209 5.6211 7.53622C5.55832 7.22035 5.59061 6.89296 5.71388 6.59544C5.83716 6.29793 6.04588 6.04364 6.31366 5.86473C6.58144 5.68583 6.89625 5.59034 7.2183 5.59034C7.54034 5.59034 7.85516 5.68583 8.12294 5.86473C8.39072 6.04364 8.59944 6.29793 8.72271 6.59544C8.84599 6.89296 8.87827 7.22035 8.8155 7.53622C8.75272 7.85209 8.59769 8.14225 8.37002 8.37002ZM2.74502 19.62C2.42283 19.6189 2.10821 19.5222 1.84097 19.3422C1.57374 19.1623 1.36591 18.907 1.24377 18.6089C1.12163 18.3108 1.09068 17.9831 1.15483 17.6673C1.21899 17.3516 1.37536 17.062 1.60417 16.8351C1.83298 16.6083 2.12393 16.4544 2.44022 16.393C2.7565 16.3316 3.0839 16.3654 3.38098 16.4901C3.67806 16.6148 3.93146 16.8248 4.10913 17.0936C4.2868 17.3624 4.38075 17.6778 4.37908 18C4.37834 18.4312 4.20692 18.8445 3.9023 19.1497C3.59767 19.4548 3.18463 19.627 2.75345 19.6285L2.74502 19.62ZM8.37002 29.925C8.10335 30.1932 7.7519 30.3606 7.37561 30.3986C6.99933 30.4367 6.62149 30.343 6.30654 30.1336C5.99159 29.9242 5.75904 29.612 5.64852 29.2503C5.53801 28.8886 5.55638 28.4998 5.70051 28.1501C5.84465 27.8005 6.10561 27.5116 6.4389 27.3329C6.77219 27.1541 7.15717 27.0965 7.5282 27.1698C7.89922 27.2432 8.23332 27.443 8.47351 27.7351C8.71369 28.0273 8.8451 28.3937 8.84533 28.7719C8.84657 28.9873 8.80521 29.2008 8.72364 29.4001C8.64207 29.5995 8.52189 29.7807 8.37002 29.9335V29.925ZM27.63 27.6216C27.8968 27.3533 28.2484 27.1859 28.6248 27.1479C29.0012 27.11 29.3791 27.2038 29.6941 27.4134C30.009 27.623 30.2415 27.9354 30.3518 28.2973C30.4621 28.6592 30.4435 29.0481 30.299 29.3978C30.1545 29.7474 29.8932 30.0361 29.5596 30.2146C29.226 30.393 28.8408 30.4502 28.4698 30.3764C28.0987 30.3025 27.7648 30.1022 27.525 29.8096C27.2851 29.517 27.1543 29.1502 27.1547 28.7719C27.1574 28.3437 27.3281 27.9337 27.63 27.63V27.6216ZM16.38 2.74502C16.3811 2.42283 16.4778 2.10821 16.6578 1.84097C16.8378 1.57374 17.093 1.36591 17.3911 1.24377C17.6893 1.12163 18.017 1.09068 18.3327 1.15483C18.6484 1.21899 18.9381 1.37536 19.1649 1.60417C19.3917 1.83298 19.5456 2.12393 19.607 2.44022C19.6684 2.7565 19.6347 3.0839 19.5099 3.38098C19.3852 3.67806 19.1752 3.93146 18.9064 4.10913C18.6376 4.2868 18.3222 4.38075 18 4.37908C17.5688 4.37834 17.1555 4.20692 16.8503 3.9023C16.5452 3.59767 16.3731 3.18463 16.3716 2.75345L16.38 2.74502ZM19.6285 33.2466C19.629 33.5688 19.534 33.8839 19.3554 34.1521C19.1768 34.4202 18.9227 34.6294 18.6251 34.7531C18.3276 34.8767 18.0001 34.9094 17.6841 34.8469C17.368 34.7844 17.0776 34.6295 16.8495 34.4019C16.6215 34.1742 16.4661 33.8841 16.4031 33.5681C16.34 33.2522 16.3721 32.9246 16.4953 32.6269C16.6184 32.3291 16.8272 32.0747 17.095 31.8956C17.3629 31.7165 17.6778 31.621 18 31.621C18.4312 31.6217 18.8445 31.7931 19.1497 32.0977C19.4548 32.4024 19.627 32.8154 19.6285 33.2466ZM18 24.1875C16.6724 24.1885 15.38 23.7604 14.3156 22.9669C14.3789 22.0328 14.7946 21.1576 15.4786 20.5184C16.1625 19.8792 17.0638 19.5236 18 19.5236C18.9362 19.5236 19.8375 19.8792 20.5215 20.5184C21.2055 21.1576 21.6211 22.0328 21.6844 22.9669C20.62 23.7604 19.3276 24.1885 18 24.1875ZM16.2028 16.5938C16.2051 16.2388 16.3123 15.8924 16.5112 15.5984C16.71 15.3043 16.9914 15.0757 17.32 14.9414C17.6486 14.8071 18.0096 14.7731 18.3575 14.8437C18.7054 14.9144 19.0245 15.0864 19.2747 15.3382C19.525 15.59 19.695 15.9102 19.7635 16.2585C19.8319 16.6068 19.7956 16.9676 19.6593 17.2953C19.5229 17.6231 19.2926 17.9031 18.9973 18.1001C18.702 18.2971 18.355 18.4022 18 18.4022C17.7631 18.4022 17.5284 18.3554 17.3097 18.2643C17.0909 18.1733 16.8923 18.0399 16.7252 17.8718C16.5582 17.7038 16.426 17.5043 16.3364 17.285C16.2467 17.0656 16.2013 16.8307 16.2028 16.5938ZM22.6716 22.0388C22.4909 21.3235 22.1488 20.659 21.6715 20.0964C21.1942 19.5339 20.5944 19.088 19.9181 18.7931C20.3672 18.4024 20.6862 17.8839 20.8325 17.307C20.9789 16.73 20.9455 16.1221 20.7369 15.5646C20.5283 15.0071 20.1545 14.5266 19.6654 14.1874C19.1763 13.8482 18.5952 13.6664 18 13.6664C17.4048 13.6664 16.8238 13.8482 16.3347 14.1874C15.8455 14.5266 15.4717 15.0071 15.2631 15.5646C15.0545 16.1221 15.0212 16.73 15.1675 17.307C15.3138 17.8839 15.6328 18.4024 16.0819 18.7931C15.4043 19.0892 14.8038 19.5367 14.3264 20.1014C13.849 20.666 13.5076 21.3327 13.3285 22.05C12.5503 21.154 12.0462 20.0531 11.8763 18.8785C11.7064 17.704 11.8778 16.5054 12.3702 15.4256C12.8626 14.3458 13.6551 13.4303 14.6533 12.7884C15.6515 12.1465 16.8132 11.8052 18 11.8052C19.1868 11.8052 20.3485 12.1465 21.3467 12.7884C22.3449 13.4303 23.1374 14.3458 23.6298 15.4256C24.1222 16.5054 24.2937 17.704 24.1238 18.8785C23.9539 20.0531 23.4498 21.154 22.6716 22.05V22.0388ZM33.2466 19.6172C32.924 19.6172 32.6087 19.5214 32.3407 19.342C32.0727 19.1625 31.864 18.9075 31.7411 18.6093C31.6181 18.3111 31.5866 17.9831 31.6503 17.6669C31.7141 17.3507 31.8703 17.0606 32.0991 16.8333C32.328 16.606 32.6192 16.4518 32.9358 16.3903C33.2525 16.3287 33.5802 16.3626 33.8776 16.4875C34.1749 16.6125 34.4285 16.823 34.6061 17.0923C34.7836 17.3615 34.8772 17.6775 34.875 18C34.875 18.2139 34.8329 18.4256 34.7511 18.6232C34.6692 18.8208 34.5493 19.0003 34.3981 19.1515C34.2468 19.3027 34.0673 19.4227 33.8698 19.5045C33.6722 19.5863 33.4604 19.6285 33.2466 19.6285V19.6172Z" fill="#E0933E"/>
</g>
<defs>
<clipPath id="clip0_188_373">
<rect width="36" height="36" fill="white"/>
</clipPath>
</defs>
</svg>
