<svg width="36" height="36" viewBox="0 0 36 36" fill="none" xmlns="http://www.w3.org/2000/svg">
<g clip-path="url(#clip0_188_323)">
<path d="M28.2 4.8H35.4C35.7318 4.8 36 4.5318 36 4.2V0.6C36 0.2682 35.7318 0 35.4 0H28.2C27.8682 0 27.6 0.2682 27.6 0.6V1.8H24.6C24.2682 1.8 24 2.0682 24 2.4V7.8H22.2V6.6C22.2 6.2682 21.9318 6 21.6 6H14.4C14.0682 6 13.8 6.2682 13.8 6.6V7.8H10.8C10.4682 7.8 10.2 8.0682 10.2 8.4V17.4H8.4V16.2C8.4 15.8682 8.1318 15.6 7.8 15.6H0.6C0.2682 15.6 0 15.8682 0 16.2V19.8C0 20.1318 0.2682 20.4 0.6 20.4H7.8C8.1318 20.4 8.4 20.1318 8.4 19.8V18.6H10.2V21.6V30.6C10.2 30.9318 10.4682 31.2 10.8 31.2H13.8V32.4C13.8 32.7318 14.0682 33 14.4 33H21.6C21.9318 33 22.2 32.7318 22.2 32.4V31.2H24.6V33.6C24.6 33.9318 24.8682 34.2 25.2 34.2H27.6V35.4C27.6 35.7318 27.8682 36 28.2 36H35.4C35.7318 36 36 35.7318 36 35.4V31.8C36 31.4682 35.7318 31.2 35.4 31.2H28.2C27.8682 31.2 27.6 31.4682 27.6 31.8V33H25.8V30.6V28.2H27.6V29.4C27.6 29.7318 27.8682 30 28.2 30H35.4C35.7318 30 36 29.7318 36 29.4V25.8C36 25.4682 35.7318 25.2 35.4 25.2H28.2C27.8682 25.2 27.6 25.4682 27.6 25.8V27H25.2C24.8682 27 24.6 27.2682 24.6 27.6V30H22.2V28.8C22.2 28.4682 21.9318 28.2 21.6 28.2H14.4C14.0682 28.2 13.8 28.4682 13.8 28.8V30H11.4V22.2H13.8V23.4C13.8 23.7318 14.0682 24 14.4 24H21.6C21.9318 24 22.2 23.7318 22.2 23.4V22.2H27.6V23.4C27.6 23.7318 27.8682 24 28.2 24H35.4C35.7318 24 36 23.7318 36 23.4V19.8C36 19.4682 35.7318 19.2 35.4 19.2H28.2C27.8682 19.2 27.6 19.4682 27.6 19.8V21H22.2V19.8C22.2 19.4682 21.9318 19.2 21.6 19.2H14.4C14.0682 19.2 13.8 19.4682 13.8 19.8V21H11.4V18V9H13.8V10.2C13.8 10.5318 14.0682 10.8 14.4 10.8H21.6C21.9318 10.8 22.2 10.5318 22.2 10.2V9H24V14.4C24 14.7318 24.2682 15 24.6 15H27.6V16.2C27.6 16.5318 27.8682 16.8 28.2 16.8H35.4C35.7318 16.8 36 16.5318 36 16.2V12.6C36 12.2682 35.7318 12 35.4 12H28.2C27.8682 12 27.6 12.2682 27.6 12.6V13.8H25.2V9H27.6V10.2C27.6 10.5318 27.8682 10.8 28.2 10.8H35.4C35.7318 10.8 36 10.5318 36 10.2V6.6C36 6.2682 35.7318 6 35.4 6H28.2C27.8682 6 27.6 6.2682 27.6 6.6V7.8H25.2V3H27.6V4.2C27.6 4.5318 27.8682 4.8 28.2 4.8ZM28.8 1.2H34.8V3.6H28.8V1.2ZM7.2 19.2H1.2V16.8H7.2V19.2ZM28.8 32.4H34.8V34.8H28.8V32.4ZM28.8 26.4H34.8V28.8H28.8V26.4ZM15 29.4H21V31.8H15V29.4ZM28.8 20.4H34.8V22.8H28.8V20.4ZM15 20.4H21V22.8H15V20.4ZM21 9.6H15V7.2H21V9.6ZM28.8 13.2H34.8V15.6H28.8V13.2ZM28.8 7.2H34.8V9.6H28.8V7.2Z" fill="#E0933E"/>
<path d="M4.79961 12H3.59961V13.2H4.79961V12Z" fill="#E0933E"/>
<path d="M4.79961 9.59961H3.59961V10.7996H4.79961V9.59961Z" fill="#E0933E"/>
<path d="M2.4002 9.59961H1.2002V10.7996H2.4002V9.59961Z" fill="#E0933E"/>
<path d="M7.2 9.59961H6V10.7996H7.2V9.59961Z" fill="#E0933E"/>
<path d="M4.79961 22.7998H3.59961V23.9998H4.79961V22.7998Z" fill="#E0933E"/>
<path d="M4.79961 25.2002H3.59961V26.4002H4.79961V25.2002Z" fill="#E0933E"/>
<path d="M7.2 25.2002H6V26.4002H7.2V25.2002Z" fill="#E0933E"/>
<path d="M2.4002 25.2002H1.2002V26.4002H2.4002V25.2002Z" fill="#E0933E"/>
</g>
<defs>
<clipPath id="clip0_188_323">
<rect width="36" height="36" fill="white"/>
</clipPath>
</defs>
</svg>
