<svg width="36" height="36" viewBox="0 0 36 36" fill="none" xmlns="http://www.w3.org/2000/svg">
<g clip-path="url(#clip0_188_321)">
<path d="M35.7188 2.50009L31.519 0.0753607C31.4335 0.025991 31.3365 0 31.2377 0C31.139 0 31.042 0.025991 30.9565 0.0753607L26.7566 2.50009C26.6711 2.54946 26.6001 2.62046 26.5507 2.70597C26.5013 2.79148 26.4753 2.88848 26.4753 2.98721V7.83681C26.4753 7.93554 26.5013 8.03254 26.5507 8.11805C26.6001 8.20356 26.6711 8.27456 26.7566 8.32393L30.9565 10.7487C31.042 10.7981 31.139 10.8241 31.2377 10.8241C31.3365 10.8241 31.4335 10.7981 31.519 10.7487L35.7188 8.32393C35.8043 8.27456 35.8753 8.20356 35.9246 8.11805C35.974 8.03254 36 7.93554 36 7.83681V2.98721C36 2.88848 35.974 2.79148 35.9246 2.70597C35.8753 2.62046 35.8043 2.54946 35.7188 2.50009ZM31.2377 1.21196L34.3125 2.98721L31.2377 4.76246L28.1628 2.98721L31.2377 1.21196ZM27.6003 3.96153L30.6752 5.73678V9.28756L27.6003 7.51231V3.96153ZM31.8002 9.28728V5.73678L34.875 3.96153V7.51231L31.8002 9.28728ZM20.693 18.5625V31.1103H23.0203C23.1695 31.1103 23.3126 31.1696 23.4181 31.2751C23.5235 31.3806 23.5828 31.5236 23.5828 31.6728C23.5828 31.822 23.5235 31.9651 23.4181 32.0706C23.3126 32.1761 23.1695 32.2353 23.0203 32.2353H20.1305C19.9813 32.2353 19.8382 32.1761 19.7327 32.0706C19.6272 31.9651 19.568 31.822 19.568 31.6728V18.5625H16.9479C16.7987 18.5625 16.6557 18.5032 16.5502 18.3977C16.4447 18.2922 16.3854 18.1492 16.3854 18C16.3854 17.8508 16.4447 17.7077 16.5502 17.6022C16.6557 17.4967 16.7987 17.4375 16.9479 17.4375H19.568V4.32716C19.568 4.17797 19.6272 4.0349 19.7327 3.92941C19.8382 3.82392 19.9813 3.76466 20.1305 3.76466H23.0203C23.1695 3.76466 23.3126 3.82392 23.4181 3.92941C23.5235 4.0349 23.5828 4.17797 23.5828 4.32716C23.5828 4.47634 23.5235 4.61942 23.4181 4.7249C23.3126 4.83039 23.1695 4.88966 23.0203 4.88966H20.693V17.4375H23.0203C23.1695 17.4375 23.3126 17.4967 23.4181 17.6022C23.5235 17.7077 23.5828 17.8508 23.5828 18C23.5828 18.1492 23.5235 18.2922 23.4181 18.3977C23.3126 18.5032 23.1695 18.5625 23.0203 18.5625H20.693ZM35.7188 15.0881L31.519 12.6633C31.4335 12.6139 31.3365 12.5879 31.2377 12.5879C31.139 12.5879 31.042 12.6139 30.9565 12.6633L26.7566 15.0881C26.6711 15.1374 26.6001 15.2084 26.5507 15.2939C26.5013 15.3795 26.4753 15.4765 26.4753 15.5752V20.4247C26.4753 20.5234 26.5013 20.6204 26.5507 20.706C26.6001 20.7915 26.6711 20.8625 26.7566 20.9118L30.9565 23.3367C31.042 23.3861 31.139 23.4122 31.2377 23.4122C31.3365 23.4122 31.4335 23.3861 31.519 23.3367L35.7188 20.9118C35.8043 20.8625 35.8753 20.7915 35.9246 20.706C35.974 20.6204 36 20.5234 36 20.4247V15.5752C36 15.4765 35.974 15.3795 35.9246 15.2939C35.8753 15.2084 35.8043 15.1374 35.7188 15.0881ZM31.2377 13.7999L34.3125 15.5752L31.2377 17.3504L28.1628 15.5752L31.2377 13.7999ZM27.6003 16.5492L30.6752 18.3245V21.8753L27.6003 20.0999V16.5492ZM31.8002 21.875V18.3242L34.875 16.5495V20.0999L31.8002 21.875ZM35.7188 27.6758L31.519 25.2513C31.4335 25.2019 31.3365 25.176 31.2377 25.176C31.139 25.176 31.042 25.2019 30.9565 25.2513L26.7566 27.676C26.6711 27.7254 26.6001 27.7964 26.5507 27.8819C26.5013 27.9674 26.4753 28.0644 26.4753 28.1632V33.0128C26.4753 33.1115 26.5013 33.2085 26.5507 33.294C26.6001 33.3795 26.6711 33.4504 26.7566 33.4998L30.9565 35.9246C31.042 35.974 31.139 36 31.2377 36C31.3365 36 31.4335 35.974 31.519 35.9246L35.7188 33.4998C35.8042 33.4504 35.8753 33.3795 35.9246 33.294C35.974 33.2085 36 33.1115 36 33.0128V28.1632C36 28.0644 35.974 27.9674 35.9246 27.8819C35.8753 27.7964 35.8043 27.7254 35.7188 27.676V27.6758ZM31.2377 26.3883L34.3125 28.1632L31.2377 29.9384L28.1628 28.1632L31.2377 26.3883ZM27.6003 29.1375L30.6752 30.9127V34.4635L27.6003 32.6883V29.1375ZM31.8002 34.4633V30.9125L34.875 29.1375V32.6883L31.8002 34.4633ZM15.0847 13.4015L7.9643 9.2908C7.87877 9.24146 7.78178 9.21549 7.68305 9.21549C7.58431 9.21549 7.48732 9.24146 7.4018 9.2908L0.28125 13.4015C0.195741 13.4509 0.124734 13.5219 0.0753643 13.6074C0.0259948 13.6929 2.57166e-06 13.7899 6.33502e-08 13.8887V22.111C-4.6813e-05 22.2098 0.025922 22.3069 0.075294 22.3924C0.124666 22.478 0.1957 22.549 0.28125 22.5984L7.4018 26.7093C7.48729 26.7587 7.5843 26.7848 7.68305 26.7848C7.7818 26.7848 7.8788 26.7587 7.9643 26.7093L15.0847 22.5984C15.1702 22.5491 15.2412 22.478 15.2906 22.3925C15.34 22.307 15.366 22.21 15.366 22.1113V13.889C15.366 13.7902 15.34 13.6931 15.2907 13.6076C15.2413 13.522 15.1703 13.4509 15.0847 13.4015ZM7.68305 10.4273L13.6785 13.8888L7.68305 17.3503L1.6875 13.889L7.68305 10.4273ZM1.125 14.8633L7.12055 18.3248V25.2477L1.125 21.7862V14.8633ZM8.24555 25.2477V18.3248L14.241 14.8633V21.7862L8.24555 25.2477Z" fill="#E0933E"/>
</g>
<defs>
<clipPath id="clip0_188_321">
<rect width="36" height="36" fill="white"/>
</clipPath>
</defs>
</svg>
