<svg width="36" height="36" viewBox="0 0 36 36" fill="none" xmlns="http://www.w3.org/2000/svg">
<g clip-path="url(#clip0_188_232)">
<path d="M10.6824 17.0879C9.76454 17.0879 9.01758 17.8347 9.01758 18.7526V25.5485C9.01758 26.4665 9.7644 27.2134 10.6824 27.2134H12.7349C13.6527 27.2134 14.3997 26.4665 14.3997 25.5485V18.7526C14.3997 17.8347 13.6529 17.0879 12.7349 17.0879H10.6824ZM12.7577 25.5485C12.7577 25.5611 12.7474 25.5714 12.7349 25.5714H10.6824C10.6698 25.5714 10.6595 25.5611 10.6595 25.5485V18.7526C10.6595 18.74 10.6698 18.7297 10.6824 18.7297H12.7349C12.7474 18.7297 12.7577 18.74 12.7577 18.7526V25.5485Z" fill="#E0933E"/>
<path d="M19.0288 13.3477H16.9763C16.0585 13.3477 15.3115 14.0945 15.3115 15.0125V25.5484C15.3115 26.4664 16.0583 27.2132 16.9763 27.2132H19.0288C19.9467 27.2132 20.6936 26.4664 20.6936 25.5484V15.0125C20.6936 14.0945 19.9468 13.3477 19.0288 13.3477ZM19.0517 25.5484C19.0517 25.561 19.0414 25.5713 19.0288 25.5713H16.9763C16.9638 25.5713 16.9535 25.561 16.9535 25.5484V15.0125C16.9535 14.9999 16.9638 14.9896 16.9763 14.9896H19.0288C19.0414 14.9896 19.0517 14.9999 19.0517 15.0125V25.5484Z" fill="#E0933E"/>
<path d="M23.2703 8.78613C22.3524 8.78613 21.6055 9.53295 21.6055 10.451V25.5479C21.6055 26.4659 22.3523 27.2127 23.2703 27.2127H25.3227C26.2406 27.2127 26.9876 26.4659 26.9876 25.5479V10.451C26.9876 9.53295 26.2407 8.78613 25.3227 8.78613H23.2703ZM25.3456 25.5479C25.3456 25.5605 25.3353 25.5707 25.3227 25.5707H23.2703C23.2577 25.5707 23.2474 25.5605 23.2474 25.5479V10.451C23.2474 10.4384 23.2577 10.4281 23.2703 10.4281H25.3227C25.3353 10.4281 25.3456 10.4384 25.3456 10.451V25.5479Z" fill="#E0933E"/>
<path d="M35.6403 14.4056C35.5499 13.9613 35.1168 13.6748 34.672 13.765C34.2277 13.8554 33.9409 14.289 34.0313 14.7333C35.3021 20.974 32.8041 27.4394 27.6676 31.2046C24.1653 33.7721 19.8447 34.8172 15.5005 34.1482C11.1567 33.4791 7.35059 31.1817 4.78324 27.6794C2.21602 24.1771 1.17064 19.8561 1.83974 15.5123C2.50884 11.1685 4.80623 7.3624 8.30841 4.79518C11.8107 2.22769 16.1321 1.18244 20.4755 1.85154C24.7604 2.51161 28.5213 4.75687 31.0869 8.17941L30.0471 7.97909C29.6023 7.89357 29.1714 8.18461 29.0857 8.63C28.9999 9.07524 29.2914 9.50571 29.7366 9.59137L32.7854 10.1786C32.8368 10.1886 32.8888 10.1934 32.9407 10.1934C33.1035 10.1934 33.2641 10.145 33.401 10.0523C33.5812 9.93016 33.7057 9.74161 33.7469 9.52774L34.3341 6.47902C34.4199 6.03377 34.1285 5.6033 33.6832 5.51765C33.2379 5.43185 32.8075 5.7233 32.7219 6.16855L32.4991 7.32532C29.6727 3.48311 25.493 0.963102 20.7258 0.228732C15.9481 -0.507691 11.1936 0.64415 7.33759 3.4708C3.48171 6.29731 0.952804 10.485 0.216792 15.2623C-0.519084 20.0396 0.632346 24.7941 3.45886 28.6501C6.2855 32.5061 10.4732 35.035 15.2504 35.7709C16.1922 35.9161 17.133 35.9876 18.0665 35.9876C21.8674 35.9876 25.5425 34.798 28.6383 32.5287C34.2899 28.3859 37.0385 21.2722 35.6403 14.4056Z" fill="#E0933E"/>
</g>
<defs>
<clipPath id="clip0_188_232">
<rect width="36" height="36" fill="white"/>
</clipPath>
</defs>
</svg>
