<svg width="36" height="36" viewBox="0 0 36 36" fill="none" xmlns="http://www.w3.org/2000/svg">
<g clip-path="url(#clip0_188_155)">
<path d="M24.75 14.0625H17.2804L16.8462 12.7596C16.8088 12.6476 16.7372 12.5502 16.6414 12.4812C16.5456 12.4121 16.4306 12.375 16.3125 12.375H11.25C11.1008 12.375 10.9577 12.4343 10.8523 12.5398C10.7468 12.6452 10.6875 12.7883 10.6875 12.9375V23.0625C10.6875 23.2117 10.7468 23.3548 10.8523 23.4602C10.9577 23.5657 11.1008 23.625 11.25 23.625H24.75C24.8992 23.625 25.0423 23.5657 25.1477 23.4602C25.2532 23.3548 25.3125 23.2117 25.3125 23.0625V14.625C25.3125 14.4758 25.2532 14.3327 25.1477 14.2273C25.0423 14.1218 24.8992 14.0625 24.75 14.0625ZM24.1875 22.5H11.8125V13.5H15.9071L16.3413 14.8029C16.3787 14.9149 16.4503 15.0123 16.5461 15.0813C16.6419 15.1504 16.7569 15.1875 16.875 15.1875H24.1875V22.5Z" fill="#E0933E"/>
<path d="M16.875 18C16.875 18.1492 16.9343 18.2923 17.0398 18.3977C17.1452 18.5032 17.2883 18.5625 17.4375 18.5625H23.0625C23.2117 18.5625 23.3548 18.5032 23.4602 18.3977C23.5657 18.2923 23.625 18.1492 23.625 18V16.3125C23.625 16.1633 23.5657 16.0202 23.4602 15.9148C23.3548 15.8093 23.2117 15.75 23.0625 15.75H17.4375C17.2883 15.75 17.1452 15.8093 17.0398 15.9148C16.9343 16.0202 16.875 16.1633 16.875 16.3125V18ZM18 16.875H22.5V17.4375H18V16.875Z" fill="#E0933E"/>
<path d="M23.0625 19.125H17.4375C17.2883 19.125 17.1452 19.1843 17.0398 19.2898C16.9343 19.3952 16.875 19.5383 16.875 19.6875C16.875 19.8367 16.9343 19.9798 17.0398 20.0852C17.1452 20.1907 17.2883 20.25 17.4375 20.25H23.0625C23.2117 20.25 23.3548 20.1907 23.4602 20.0852C23.5657 19.9798 23.625 19.8367 23.625 19.6875C23.625 19.5383 23.5657 19.3952 23.4602 19.2898C23.3548 19.1843 23.2117 19.125 23.0625 19.125Z" fill="#E0933E"/>
<path d="M33.7502 24.2586V11.7412C34.096 11.6523 34.4156 11.4824 34.6828 11.2455C34.9499 11.0086 35.1568 10.7116 35.2864 10.379C35.416 10.0463 35.4646 9.68759 35.4282 9.33245C35.3918 8.9773 35.2713 8.63593 35.0769 8.33652C34.8824 8.03712 34.6195 7.78829 34.3099 7.61059C34.0002 7.43288 33.6528 7.33141 33.2962 7.31456C32.9395 7.2977 32.584 7.36595 32.259 7.51366C31.934 7.66136 31.6488 7.88429 31.427 8.16402L20.2192 3.18322C20.2733 2.86073 20.2565 2.5303 20.17 2.21496C20.0834 1.89961 19.9292 1.60693 19.7179 1.35728C19.5067 1.10763 19.2436 0.907023 18.947 0.769425C18.6503 0.631827 18.3272 0.560547 18.0002 0.560547C17.6732 0.560547 17.3501 0.631827 17.0535 0.769425C16.7568 0.907023 16.4937 1.10763 16.2825 1.35728C16.0713 1.60693 15.9171 1.89961 15.8305 2.21496C15.7439 2.5303 15.7272 2.86073 15.7813 3.18322L4.5735 8.16402C4.3516 7.88468 4.06645 7.66213 3.74157 7.51473C3.4167 7.36734 3.06142 7.29933 2.70508 7.31632C2.34874 7.33331 2.00155 7.43481 1.69217 7.61245C1.38279 7.79009 1.12011 8.03877 0.925794 8.33795C0.731481 8.63714 0.611117 8.97825 0.574638 9.33312C0.538159 9.688 0.586612 10.0465 0.715996 10.3789C0.84538 10.7114 1.05198 11.0083 1.31875 11.2452C1.58552 11.482 1.9048 11.652 2.25024 11.7412V24.2586C1.90448 24.3475 1.58483 24.5174 1.31772 24.7543C1.05061 24.9912 0.843698 25.2882 0.714081 25.6208C0.584463 25.9535 0.535862 26.3122 0.572293 26.6673C0.608724 27.0225 0.729142 27.3639 0.923596 27.6633C1.11805 27.9627 1.38096 28.2115 1.6906 28.3892C2.00024 28.5669 2.34772 28.6684 2.70432 28.6852C3.06093 28.7021 3.41643 28.6338 3.74145 28.4861C4.06647 28.3384 4.35168 28.1155 4.5735 27.8358L15.7813 32.8166C15.7272 33.1391 15.7439 33.4695 15.8305 33.7848C15.9171 34.1002 16.0713 34.3929 16.2825 34.6425C16.4937 34.8922 16.7568 35.0928 17.0535 35.2304C17.3501 35.368 17.6732 35.4392 18.0002 35.4392C18.3272 35.4392 18.6503 35.368 18.947 35.2304C19.2436 35.0928 19.5067 34.8922 19.7179 34.6425C19.9292 34.3929 20.0834 34.1002 20.17 33.7848C20.2565 33.4695 20.2733 33.1391 20.2192 32.8166L31.427 27.8358C31.6489 28.1151 31.934 28.3377 32.2589 28.4851C32.5838 28.6325 32.9391 28.7005 33.2954 28.6835C33.6517 28.6665 33.9989 28.565 34.3083 28.3873C34.6177 28.2097 34.8804 27.961 35.0747 27.6618C35.269 27.3627 35.3894 27.0215 35.4258 26.6667C35.4623 26.3118 35.4139 25.9533 35.2845 25.6209C35.1551 25.2884 34.9485 24.9915 34.6817 24.7546C34.415 24.5178 34.0957 24.3478 33.7502 24.2586ZM33.1877 8.43739C33.3529 8.43688 33.5161 8.47272 33.6658 8.54238C33.8155 8.61203 33.948 8.71378 34.054 8.84041C34.16 8.96705 34.2368 9.11545 34.2789 9.2751C34.3211 9.43475 34.3276 9.60172 34.298 9.76416C34.2684 9.9266 34.2034 10.0805 34.1076 10.215C34.0118 10.3495 33.8876 10.4613 33.7437 10.5424C33.5999 10.6235 33.44 10.6719 33.2753 10.6842C33.1106 10.6966 32.9453 10.6725 32.791 10.6138L33.4609 10.2416C33.59 10.1685 33.6849 10.0473 33.725 9.90447C33.7652 9.76166 33.7473 9.60877 33.6752 9.47909C33.6032 9.34941 33.4828 9.25344 33.3404 9.21208C33.1979 9.17071 33.0449 9.18729 32.9146 9.25822L32.0757 9.72425C32.0511 9.5644 32.0615 9.40111 32.1062 9.24567C32.1508 9.09022 32.2287 8.94634 32.3345 8.82396C32.4402 8.70158 32.5713 8.60364 32.7186 8.53689C32.8659 8.47015 33.026 8.4362 33.1877 8.43739ZM18.0002 1.68739C18.2478 1.68716 18.4886 1.76867 18.6851 1.91928C18.8816 2.06989 19.0228 2.28116 19.087 2.5203C19.1511 2.75943 19.1345 3.01305 19.0397 3.24176C18.9449 3.47048 18.7772 3.6615 18.5627 3.78517V3.37489C18.5627 3.22571 18.5035 3.08263 18.398 2.97715C18.2925 2.87166 18.1494 2.81239 18.0002 2.81239C17.8511 2.81239 17.708 2.87166 17.6025 2.97715C17.497 3.08263 17.4377 3.22571 17.4377 3.37489V3.78517C17.2233 3.6615 17.0556 3.47048 16.9608 3.24176C16.866 3.01305 16.8494 2.75943 16.9135 2.5203C16.9776 2.28116 17.1189 2.06989 17.3154 1.91928C17.5119 1.76867 17.7527 1.68716 18.0002 1.68739ZM1.68774 9.56239C1.68654 9.4071 1.71751 9.25324 1.7787 9.1105C1.83989 8.96776 1.92997 8.83924 2.04326 8.73302C2.15656 8.62681 2.29062 8.5452 2.437 8.49333C2.58339 8.44147 2.73893 8.42048 2.89382 8.43167C3.04872 8.44287 3.19962 8.48602 3.33702 8.5584C3.47442 8.63078 3.59535 8.73082 3.69219 8.85223C3.78903 8.97364 3.85969 9.11378 3.89971 9.26383C3.93973 9.41389 3.94825 9.5706 3.92473 9.72411L3.0859 9.25808C2.95561 9.18715 2.80257 9.17057 2.66011 9.21193C2.51765 9.2533 2.39729 9.34927 2.32525 9.47895C2.2532 9.60863 2.2353 9.76152 2.27545 9.90433C2.31559 10.0471 2.41052 10.1683 2.53957 10.2415L3.20951 10.6136C3.03939 10.6785 2.85605 10.701 2.67531 10.6792C2.49456 10.6573 2.32183 10.5919 2.17204 10.4884C2.02225 10.3849 1.89988 10.2465 1.81551 10.0852C1.73113 9.92389 1.68728 9.74445 1.68774 9.56239ZM2.81274 27.5624C2.63919 27.5629 2.4679 27.5232 2.31225 27.4464C2.1566 27.3697 2.02081 27.258 1.91552 27.12C1.81022 26.9821 1.73826 26.8216 1.70527 26.6512C1.67229 26.4809 1.67916 26.3052 1.72537 26.1379C1.77157 25.9706 1.85585 25.8163 1.9716 25.687C2.08736 25.5577 2.23146 25.4569 2.39263 25.3926C2.55381 25.3282 2.72768 25.3021 2.90065 25.3161C3.07363 25.3301 3.24102 25.3839 3.38972 25.4734L2.53957 25.9457C2.47434 25.9812 2.41678 26.0293 2.37022 26.0872C2.32367 26.145 2.28903 26.2116 2.26832 26.2829C2.24761 26.3542 2.24123 26.4289 2.24955 26.5028C2.25787 26.5766 2.28073 26.648 2.3168 26.7129C2.35287 26.7778 2.40144 26.835 2.45971 26.881C2.51798 26.9271 2.5848 26.9612 2.65631 26.9813C2.72781 27.0014 2.80259 27.0071 2.87632 26.9981C2.95005 26.9892 3.02128 26.9657 3.0859 26.9291L3.93668 26.4564C3.93151 26.7512 3.81087 27.0322 3.6007 27.239C3.39053 27.4459 3.1076 27.562 2.81274 27.5624ZM18.0002 34.3124C17.7527 34.3126 17.5119 34.2311 17.3154 34.0805C17.1189 33.9299 16.9776 33.7186 16.9135 33.4795C16.8494 33.2404 16.866 32.9867 16.9608 32.758C17.0556 32.5293 17.2233 32.3383 17.4377 32.2146V32.6249C17.4377 32.7741 17.497 32.9172 17.6025 33.0226C17.708 33.1281 17.8511 33.1874 18.0002 33.1874C18.1494 33.1874 18.2925 33.1281 18.398 33.0226C18.5035 32.9172 18.5627 32.7741 18.5627 32.6249V32.2146C18.7772 32.3383 18.9449 32.5293 19.0397 32.758C19.1345 32.9867 19.1511 33.2404 19.087 33.4795C19.0228 33.7186 18.8816 33.9299 18.6851 34.0805C18.4886 34.2311 18.2478 34.3126 18.0002 34.3124ZM19.761 31.789C19.4568 31.4058 19.0362 31.1319 18.5627 31.0086V26.9999C18.5627 26.8507 18.5035 26.7076 18.398 26.6021C18.2925 26.4967 18.1494 26.4374 18.0002 26.4374C17.8511 26.4374 17.708 26.4967 17.6025 26.6021C17.497 26.7076 17.4377 26.8507 17.4377 26.9999V31.0086C16.9642 31.1319 16.5436 31.4058 16.2395 31.7891L5.03166 26.8083C5.0841 26.4965 5.07006 26.1771 4.99046 25.8711L9.8359 23.1792C9.90114 23.1437 9.95869 23.0956 10.0053 23.0377C10.0518 22.9798 10.0864 22.9133 10.1072 22.842C10.1279 22.7707 10.1342 22.6959 10.1259 22.6221C10.1176 22.5483 10.0947 22.4769 10.0587 22.412C10.0226 22.347 9.97403 22.2899 9.91576 22.2438C9.85749 22.1978 9.79067 22.1637 9.71917 22.1436C9.64766 22.1235 9.57289 22.1178 9.49915 22.1267C9.42542 22.1357 9.35419 22.1592 9.28957 22.1958L4.44244 24.8888C4.1527 24.583 3.78294 24.3646 3.37524 24.2586V11.7412C3.72691 11.65 4.05124 11.4749 4.32045 11.231L9.28957 13.9916C9.35419 14.0282 9.42542 14.0517 9.49915 14.0606C9.57289 14.0696 9.64766 14.0639 9.71917 14.0438C9.79067 14.0237 9.85749 13.9896 9.91576 13.9435C9.97403 13.8975 10.0226 13.8403 10.0587 13.7754C10.0947 13.7105 10.1176 13.6391 10.1259 13.5652C10.1342 13.4914 10.1279 13.4167 10.1072 13.3454C10.0864 13.2741 10.0518 13.2075 10.0053 13.1497C9.95869 13.0918 9.90114 13.0437 9.8359 13.0082L4.94159 10.2891C5.06265 9.93652 5.09361 9.55921 5.03166 9.19156L16.2395 4.21077C16.5437 4.594 16.9642 4.86791 17.4377 4.99117V12.3749C17.4377 12.5241 17.497 12.6672 17.6025 12.7726C17.708 12.8781 17.8511 12.9374 18.0002 12.9374C18.1494 12.9374 18.2925 12.8781 18.398 12.7726C18.5035 12.6672 18.5627 12.5241 18.5627 12.3749V4.99117C19.0363 4.86789 19.4568 4.59396 19.761 4.2107L30.9688 9.1915C30.9069 9.55914 30.9378 9.93645 31.0589 10.2891L26.1646 13.0081C26.0993 13.0436 26.0418 13.0917 25.9952 13.1496C25.9487 13.2075 25.914 13.274 25.8933 13.3453C25.8726 13.4166 25.8662 13.4914 25.8746 13.5652C25.8829 13.639 25.9057 13.7104 25.9418 13.7753C25.9779 13.8403 26.0264 13.8974 26.0847 13.9435C26.143 13.9895 26.2098 14.0236 26.2813 14.0437C26.3528 14.0638 26.4276 14.0695 26.5013 14.0606C26.5751 14.0516 26.6463 14.0281 26.7109 13.9915L31.68 11.2309C31.9492 11.4749 32.2736 11.65 32.6252 11.7412V24.2586C32.2176 24.3646 31.8478 24.5828 31.558 24.8885L26.7109 22.1956C26.5806 22.1247 26.4276 22.1081 26.2851 22.1494C26.1426 22.1908 26.0223 22.2868 25.9502 22.4164C25.8782 22.5461 25.8603 22.699 25.9004 22.8418C25.9406 22.9846 26.0355 23.1058 26.1646 23.179L31.01 25.8709C30.9304 26.1769 30.9164 26.4963 30.9688 26.8081L19.761 31.789ZM33.1877 27.5624C32.8929 27.562 32.6099 27.4459 32.3997 27.2391C32.1895 27.0322 32.0689 26.7512 32.0637 26.4564L32.9145 26.9291C32.9791 26.9657 33.0504 26.9892 33.1241 26.9981C33.1978 27.0071 33.2726 27.0014 33.3441 26.9813C33.4156 26.9612 33.4824 26.9271 33.5407 26.881C33.599 26.835 33.6475 26.7778 33.6836 26.7129C33.7197 26.648 33.7425 26.5766 33.7509 26.5028C33.7592 26.4289 33.7528 26.3542 33.7321 26.2829C33.7114 26.2116 33.6767 26.145 33.6302 26.0872C33.5836 26.0293 33.5261 25.9812 33.4608 25.9457L32.6107 25.4734C32.7593 25.3844 32.9265 25.3309 33.0992 25.3172C33.2719 25.3035 33.4455 25.3298 33.6063 25.3942C33.7671 25.4586 33.9109 25.5593 34.0264 25.6884C34.1419 25.8176 34.226 25.9717 34.2721 26.1386C34.3183 26.3056 34.3252 26.481 34.2924 26.6511C34.2595 26.8213 34.1878 26.9815 34.0828 27.1193C33.9779 27.2571 33.8425 27.3688 33.6872 27.4457C33.5319 27.5226 33.361 27.5625 33.1877 27.5624Z" fill="#E0933E"/>
<path d="M18 24.1875C17.8508 24.1875 17.7077 24.2468 17.6023 24.3523C17.4968 24.4577 17.4375 24.6008 17.4375 24.75V25.3125C17.4375 25.4617 17.4968 25.6048 17.6023 25.7102C17.7077 25.8157 17.8508 25.875 18 25.875C18.1492 25.875 18.2923 25.8157 18.3977 25.7102C18.5032 25.6048 18.5625 25.4617 18.5625 25.3125V24.75C18.5625 24.6008 18.5032 24.4577 18.3977 24.3523C18.2923 24.2468 18.1492 24.1875 18 24.1875Z" fill="#E0933E"/>
</g>
<defs>
<clipPath id="clip0_188_155">
<rect width="36" height="36" fill="white"/>
</clipPath>
</defs>
</svg>
