<svg width="36" height="36" viewBox="0 0 36 36" fill="none" xmlns="http://www.w3.org/2000/svg">
<path d="M31.941 6.0238C27.098 6.0238 23.7333 4.47489 21.7634 3.17545C19.6235 1.76393 18.6143 0.330609 18.6054 0.317882C18.4687 0.118898 18.2426 0.000632811 18.0012 0C18.0006 0 18 0 17.9993 0C17.7587 0 17.5327 0.118687 17.3954 0.316335C17.3855 0.330679 16.3762 1.764 14.2365 3.17552C12.2666 4.47496 8.90189 6.02387 4.05891 6.02387C3.65314 6.02387 3.32422 6.35279 3.32422 6.75857V17.8725C3.32422 17.878 3.32429 17.8837 3.32436 17.8893C3.39861 21.1281 3.61173 24.0457 5.47529 26.9541C7.54823 30.1894 11.4303 33.0422 17.6921 35.9323C17.7898 35.9774 17.8948 35.9999 17.9999 35.9999C18.1049 35.9999 18.2101 35.9773 18.3077 35.9323C24.5696 33.0422 28.4515 30.1895 30.5246 26.9541C32.3881 24.0457 32.6012 21.1281 32.6755 17.8893C32.6756 17.8837 32.6756 17.878 32.6756 17.8725V6.7585C32.6757 6.35272 32.3468 6.0238 31.941 6.0238ZM31.2063 17.8641C31.1346 20.981 30.9467 23.5717 29.2874 26.1614C27.4054 29.0986 23.8146 31.7384 18 34.4552C12.1854 31.7384 8.59455 29.0986 6.71257 26.1614C5.0532 23.5718 4.86533 20.981 4.79368 17.8641V7.48201C9.64938 7.33238 13.068 5.72033 15.1127 4.35768C16.4951 3.43645 17.4437 2.5124 18 1.89393C18.5562 2.5124 19.5049 3.43645 20.8872 4.35768C22.9319 5.7204 26.3505 7.33245 31.2063 7.48201V17.8641Z" fill="#E0933E"/>
<path d="M14.6645 6.96795C14.4772 6.60802 14.0336 6.4681 13.6736 6.65534C11.6862 7.6895 9.4494 8.38285 7.02538 8.71599C6.6234 8.77125 6.34229 9.14187 6.39756 9.54392C6.44811 9.91193 6.76318 10.1786 7.12452 10.1786C7.15785 10.1786 7.1916 10.1764 7.22549 10.1717C9.81685 9.81553 12.2145 9.07107 14.3519 7.95886C14.7119 7.77155 14.8518 7.32788 14.6645 6.96795Z" fill="#E0933E"/>
<path d="M16.921 5.43372C16.6802 5.10698 16.2203 5.03737 15.8937 5.27805C15.8083 5.34105 15.7202 5.40454 15.6295 5.46845C15.2979 5.70245 15.2189 6.16082 15.4528 6.49241C15.596 6.69512 15.823 6.80347 16.0537 6.80347C16.2002 6.80347 16.348 6.75981 16.4767 6.66897C16.5758 6.599 16.6719 6.52968 16.7652 6.46098C17.092 6.2203 17.1616 5.76039 16.921 5.43372Z" fill="#E0933E"/>
<path d="M18.0005 8.70898C12.7339 8.70898 8.44922 12.9937 8.44922 18.2603C8.44922 23.5268 12.7339 27.8114 18.0005 27.8114C23.267 27.8114 27.5517 23.5268 27.5517 18.2603C27.5517 12.9937 23.267 8.70898 18.0005 8.70898ZM18.0005 26.342C15.4309 26.342 13.1376 25.1365 11.6563 23.2614C13.0541 21.9706 14.8765 21.142 16.8522 20.9104C17.1924 20.8705 17.4599 20.6008 17.497 20.2603C17.5341 19.9197 17.3309 19.5988 17.0074 19.4865C15.7887 19.064 14.9698 17.9133 14.9698 16.6232C14.9698 14.9522 16.3293 13.5927 18.0005 13.5927C19.6716 13.5927 21.0311 14.9522 21.0311 16.6232C21.0311 17.9133 20.2122 19.0639 18.9935 19.4865C18.6698 19.5988 18.4667 19.9197 18.5038 20.2603C18.5409 20.6008 18.8084 20.8705 19.1487 20.9104C21.1243 21.1421 22.9467 21.9706 24.3446 23.2614C22.8632 25.1365 20.57 26.342 18.0005 26.342ZM21.1603 19.8268C21.9988 18.9988 22.5004 17.8537 22.5004 16.6233C22.5004 14.142 20.4818 12.1234 18.0005 12.1234C15.5191 12.1234 13.5005 14.142 13.5005 16.6233C13.5005 17.8537 14.0022 18.9987 14.8406 19.8268C13.3526 20.2653 11.9873 21.0122 10.8458 22.0152C10.2542 20.8926 9.91868 19.615 9.91868 18.2604C9.91868 13.804 13.5442 10.1785 18.0005 10.1785C22.4567 10.1785 26.0822 13.804 26.0822 18.2603C26.0822 19.6149 25.7467 20.8926 25.1551 22.0152C24.0136 21.0121 22.6483 20.2653 21.1603 19.8268Z" fill="#E0933E"/>
</svg>
