<svg width="36" height="36" viewBox="0 0 36 36" fill="none" xmlns="http://www.w3.org/2000/svg">
<path d="M18 2C10.2804 2 4 8.2804 4 16C4 23.7196 10.2804 30 18 30C25.7196 30 32 23.7196 32 16C32 8.2804 25.7196 2 18 2ZM18 27.4545C11.6839 27.4545 6.54545 22.316 6.54545 16C6.54545 9.68396 11.6839 4.54545 18 4.54545C24.3161 4.54545 29.4545 9.68396 29.4545 16C29.4545 22.316 24.316 27.4545 18 27.4545Z" fill="#E0933E"/>
<path d="M23.2503 11.0505L16.0506 18.2501L12.7508 14.9503C12.2538 14.4533 11.4479 14.4532 10.9509 14.9502C10.4539 15.4472 10.4539 16.253 10.9509 16.7501L15.1506 20.9499C15.3892 21.1886 15.7129 21.3227 16.0505 21.3227H16.0506C16.3881 21.3227 16.7118 21.1886 16.9505 20.95L25.0502 12.8504C25.5472 12.3534 25.5472 11.5476 25.0502 11.0506C24.5531 10.5535 23.7473 10.5534 23.2503 11.0505Z" fill="#E0933E"/>
</svg>
