<svg width="36" height="36" viewBox="0 0 36 36" fill="none" xmlns="http://www.w3.org/2000/svg">
<path d="M31.992 28.2725C31.2745 28.2737 30.5785 28.518 30.0176 28.9654C29.4567 29.4128 29.0639 30.037 28.9032 30.7362H24.5279C24.4201 30.7361 24.3168 30.6932 24.2406 30.617C24.1644 30.5409 24.1215 30.4375 24.1213 30.3298V26.074C25.9575 23.7675 26.9584 20.9072 26.961 17.9591C26.961 17.698 26.8572 17.4477 26.6726 17.2631C26.488 17.0784 26.2377 16.9747 25.9766 16.9747H14.9966V5.917C14.9966 5.65593 14.8929 5.40555 14.7083 5.22094C14.5237 5.03633 14.2733 4.93262 14.0122 4.93262H13.9342C11.3602 4.93006 8.84321 5.69069 6.70141 7.11835C4.55962 8.54602 2.88918 10.5766 1.90125 12.9535C0.913317 15.3304 0.652248 17.9468 1.15104 20.472C1.64984 22.9972 2.88611 25.3178 4.70357 27.1406C4.71538 27.1538 4.7241 27.1687 4.73681 27.1816C4.75059 27.1954 4.76679 27.2051 4.78125 27.218C6.85509 29.2808 9.56639 30.5805 12.4734 30.9054C12.9656 30.9594 13.4603 30.9865 13.9555 30.9867C16.9461 30.9918 19.8449 29.9535 22.1523 28.0509V30.3295C22.1531 30.9592 22.4036 31.5629 22.8489 32.0082C23.2942 32.4535 23.8979 32.704 24.5276 32.7047H29.0838C29.3115 33.2293 29.6768 33.6825 30.1411 34.0164C30.6054 34.3503 31.1513 34.5523 31.7211 34.6012C32.2908 34.6501 32.8632 34.544 33.3775 34.2941C33.8919 34.0441 34.3291 33.6598 34.6428 33.1816C34.9565 32.7035 35.135 32.1494 35.1595 31.5781C35.1839 31.0068 35.0534 30.4395 34.7817 29.9363C34.51 29.4331 34.1073 29.0128 33.6161 28.7198C33.125 28.4269 32.5638 28.2725 31.992 28.2725ZM5.68907 10.5914C7.57831 8.48027 10.2045 7.17314 13.0278 6.93872V17.5495L5.46784 25.0664C3.75552 23.0314 2.83512 20.4468 2.87576 17.7876C2.9164 15.1283 3.91536 12.5731 5.68907 10.5914ZM21.316 26.1939C19.3407 27.9674 16.7927 28.97 14.1385 29.0181C11.4843 29.0662 8.90159 28.1565 6.86334 26.4558L14.4188 18.9435H24.9481C24.6971 21.7324 23.3994 24.3229 21.316 26.1939ZM31.9922 32.6458C31.7544 32.6458 31.522 32.5754 31.3242 32.4433C31.1265 32.3112 30.9724 32.1234 30.8813 31.9038C30.7903 31.6841 30.7665 31.4423 30.8129 31.2091C30.8592 30.9759 30.9737 30.7617 31.1419 30.5935C31.31 30.4254 31.5243 30.3109 31.7575 30.2645C31.9907 30.2181 32.2325 30.242 32.4521 30.333C32.6718 30.424 32.8596 30.5781 32.9916 30.7759C33.1237 30.9736 33.1942 31.2061 33.1941 31.4439C33.1936 31.7625 33.0668 32.0679 32.8414 32.2932C32.6161 32.5184 32.3109 32.6453 31.9922 32.6458Z" fill="#E0933E"/>
<path d="M18.011 15.5127H28.7754C29.0365 15.5127 29.2869 15.409 29.4715 15.2244C29.6561 15.0398 29.7598 14.7894 29.7598 14.5284C29.7561 13.6261 29.6534 12.727 29.4537 11.8471H30.6012C31.2309 11.8464 31.8346 11.5959 32.2799 11.1506C32.7251 10.7053 32.9756 10.1016 32.9764 9.47188V7.3535C33.6937 7.11924 34.3041 6.63684 34.6976 5.99296C35.0912 5.34908 35.2423 4.58595 35.1237 3.84068C35.0051 3.09541 34.6246 2.41687 34.0506 1.92698C33.4766 1.43709 32.7466 1.16797 31.992 1.16797C31.2374 1.16797 30.5075 1.43709 29.9334 1.92698C29.3594 2.41687 28.9789 3.09541 28.8603 3.84068C28.7417 4.58595 28.8928 5.34908 29.2864 5.99296C29.68 6.63684 30.2903 7.11924 31.0076 7.3535V9.47182C31.0075 9.57958 30.9646 9.6829 30.8884 9.7591C30.8122 9.83531 30.7089 9.87819 30.6012 9.87834H28.8432C28.2959 8.52849 27.514 7.28617 26.5336 6.20887L26.5325 6.2078C25.3835 4.95563 23.9891 3.95315 22.4362 3.26265C20.8833 2.57215 19.205 2.20839 17.5055 2.19397C17.2449 2.20026 16.9956 2.30221 16.8052 2.48039C16.7131 2.57182 16.64 2.68059 16.5901 2.80042C16.5402 2.92025 16.5146 3.04877 16.5146 3.17857V14.0164C16.5151 14.4131 16.6729 14.7934 16.9534 15.0739C17.234 15.3545 17.6143 15.5123 18.011 15.5127ZM31.9922 3.1388C32.2299 3.13886 32.4624 3.20942 32.66 3.34156C32.8577 3.4737 33.0117 3.66149 33.1027 3.88118C33.1936 4.10087 33.2174 4.3426 33.1709 4.57579C33.1245 4.80897 33.0099 5.02315 32.8418 5.19124C32.6736 5.35933 32.4594 5.47377 32.2261 5.52011C31.9929 5.56644 31.7512 5.54257 31.5316 5.45153C31.3119 5.36049 31.1242 5.20636 30.9922 5.00864C30.8601 4.81091 30.7897 4.57846 30.7897 4.34069C30.7902 4.02199 30.9171 3.71648 31.1425 3.49117C31.3679 3.26586 31.6735 3.13914 31.9922 3.1388ZM18.4834 4.21711C20.8675 4.46086 23.0934 5.52353 24.7821 7.22416C26.4707 8.92478 27.5175 11.1582 27.7443 13.544H18.4834V4.21711Z" fill="#E0933E"/>
</svg>
