<svg width="36" height="36" viewBox="0 0 36 36" fill="none" xmlns="http://www.w3.org/2000/svg">
<g clip-path="url(#clip0_188_185)">
<path d="M17.3975 19.7441L9.61956 15.2536C9.43991 15.1498 9.2185 15.1498 9.03892 15.2536L1.26102 19.7441C1.08138 19.8478 0.970703 20.0395 0.970703 20.247V29.228C0.970703 29.4355 1.08145 29.6271 1.26102 29.7309L9.03892 34.2214C9.21688 34.3241 9.4416 34.3241 9.61956 34.2214L17.3975 29.7309C17.5772 29.6272 17.6878 29.4355 17.6878 29.228V20.247C17.6878 20.0394 17.5771 19.8478 17.3975 19.7441ZM16.5265 28.8928L9.32931 33.048L2.13213 28.8928V20.5822L9.32931 16.4269L16.5265 20.5822V28.8928Z" fill="#E0933E"/>
<path d="M34.7393 19.7441L26.9614 15.2536C26.7817 15.1499 26.5603 15.1499 26.3807 15.2536L18.6028 19.7441C18.4232 19.8479 18.3125 20.0395 18.3125 20.2469V29.228C18.3125 29.4355 18.4232 29.6271 18.6028 29.7308L26.3807 34.2213C26.5587 34.3241 26.7834 34.3241 26.9614 34.2213L34.7393 29.7308C34.9189 29.6271 35.0296 29.4355 35.0296 29.228V20.2469C35.0296 20.0395 34.9189 19.8478 34.7393 19.7441ZM33.8682 28.8927L26.671 33.048L19.4739 28.8927V20.5821L26.671 16.4269L33.8682 20.5821V28.8927Z" fill="#E0933E"/>
<path d="M26.0679 34.918L18.29 30.4275C18.0123 30.2671 17.6571 30.3623 17.4968 30.6401C17.3365 30.9178 17.4316 31.273 17.7094 31.4333L25.4873 35.9238C25.7868 36.0968 26.1799 35.9629 26.3132 35.6448C26.4247 35.3787 26.3178 35.0623 26.0679 34.918Z" fill="#E0933E"/>
<path d="M16.1447 32.0014C15.9844 31.7236 15.6293 31.6285 15.3515 31.7888L9.9319 34.9178C9.68208 35.062 9.57506 35.3785 9.68665 35.6445C9.81996 35.9626 10.2129 36.0965 10.5126 35.9235L15.9322 32.7945C16.21 32.6342 16.3051 32.2791 16.1447 32.0014Z" fill="#E0933E"/>
<path d="M35.846 0.290428C35.6857 0.0126939 35.3305 -0.0824389 35.0528 0.0778736L29.8298 3.09337C29.3285 3.3827 29.5389 4.17695 30.1207 4.17695C30.2192 4.17695 30.3191 4.15185 30.4105 4.09905L35.6335 1.08355C35.9112 0.923311 36.0064 0.568163 35.846 0.290428Z" fill="#E0933E"/>
<path d="M35.6332 18.0396L28.1457 13.7167V5.07087C28.1457 4.75018 27.8856 4.49023 27.565 4.49023C27.2443 4.49023 26.9844 4.75025 26.9844 5.07087V14.0519C26.9844 14.2594 27.0951 14.451 27.2747 14.5548L35.0526 19.0453C35.3521 19.2183 35.7452 19.0844 35.8786 18.7663C35.9901 18.5004 35.8831 18.1839 35.6332 18.0396Z" fill="#E0933E"/>
<path d="M8.72507 4.56842L0.947241 0.0779073C0.669436 -0.0824755 0.314358 0.0127277 0.154045 0.290392C-0.00626704 0.568126 0.0888657 0.923275 0.3666 1.08359L7.85418 5.40647V13.717L0.36653 18.0399C0.11671 18.1841 0.00969389 18.5006 0.12128 18.7667C0.254592 19.0847 0.647569 19.2187 0.947241 19.0456L8.72514 14.5551C8.90486 14.4515 9.01546 14.2597 9.01546 14.0522V5.07122C9.01546 4.86373 8.90472 4.67213 8.72507 4.56842Z" fill="#E0933E"/>
<path d="M26.0684 4.56834L18.2905 0.0778359C18.1108 -0.0259453 17.8894 -0.0259453 17.7098 0.0778359L9.93192 4.56834C9.75227 4.67213 9.6416 4.86373 9.6416 5.07122V14.0522C9.6416 14.2597 9.75234 14.4513 9.93192 14.5551L17.7098 19.0456C17.7996 19.0975 17.8999 19.1235 18.0001 19.1235C18.1004 19.1235 18.2007 19.0975 18.2905 19.0456L26.0684 14.5551C26.248 14.4513 26.3587 14.2597 26.3587 14.0522V5.07122C26.3587 4.86373 26.2479 4.67205 26.0684 4.56834ZM25.1973 13.717L18.0001 17.8722L10.803 13.717V5.4064L18.0001 1.25114L25.1973 5.4064V13.717Z" fill="#E0933E"/>
<path d="M14.5572 27.248C14.2365 27.248 13.9766 27.5081 13.9766 27.8287V28.1428C13.9766 28.4635 14.2366 28.7234 14.5572 28.7234C14.8778 28.7234 15.1378 28.4634 15.1378 28.1428V27.8287C15.1378 27.5081 14.8779 27.248 14.5572 27.248Z" fill="#E0933E"/>
<path d="M14.5572 20.75C14.2365 20.75 13.9766 21.01 13.9766 21.3306V25.425C13.9766 25.7457 14.2366 26.0056 14.5572 26.0056C14.8778 26.0056 15.1378 25.7456 15.1378 25.425V21.3306C15.1378 21.0099 14.8779 20.75 14.5572 20.75Z" fill="#E0933E"/>
<path d="M31.901 27.248C31.5803 27.248 31.3203 27.5081 31.3203 27.8287V28.1428C31.3203 28.4635 31.5803 28.7234 31.901 28.7234C32.2216 28.7234 32.4816 28.4634 32.4816 28.1428V27.8287C32.4817 27.5081 32.2216 27.248 31.901 27.248Z" fill="#E0933E"/>
<path d="M31.901 20.75C31.5803 20.75 31.3203 21.01 31.3203 21.3306V25.425C31.3203 25.7457 31.5803 26.0056 31.901 26.0056C32.2216 26.0056 32.4816 25.7456 32.4816 25.425V21.3306C32.4817 21.0099 32.2216 20.75 31.901 20.75Z" fill="#E0933E"/>
<path d="M23.2291 11.7637C22.9084 11.7637 22.6484 12.0237 22.6484 12.3443V12.6584C22.6484 12.9792 22.9085 13.239 23.2291 13.239C23.5497 13.239 23.8097 12.979 23.8097 12.6584V12.3443C23.8097 12.0236 23.5498 11.7637 23.2291 11.7637Z" fill="#E0933E"/>
<path d="M23.2291 5.26562C22.9084 5.26562 22.6484 5.52564 22.6484 5.84627V9.94063C22.6484 10.2614 22.9085 10.5214 23.2291 10.5214C23.5497 10.5214 23.8097 10.2614 23.8097 9.94077V5.84634C23.8097 5.52564 23.5498 5.26562 23.2291 5.26562Z" fill="#E0933E"/>
</g>
<defs>
<clipPath id="clip0_188_185">
<rect width="36" height="36" fill="white"/>
</clipPath>
</defs>
</svg>
