<svg width="36" height="36" viewBox="0 0 36 36" fill="none" xmlns="http://www.w3.org/2000/svg">
<g clip-path="url(#clip0_188_228)">
<path d="M33.3037 31.4213L32.0138 30.6842C32.4465 30.5573 32.8513 30.4102 33.2246 30.243C33.6354 30.0589 33.8986 29.6562 33.8953 29.217C33.871 26.0663 33.5026 23.7116 32.7691 22.0184C31.7976 19.7759 30.1662 18.6389 27.9205 18.6389C25.6747 18.6389 24.0434 19.7759 23.0717 22.0184C22.7838 22.683 22.5524 23.45 22.3757 24.3265L18.8641 21.9123V17.3612H24.3129C25.2868 17.3612 26.0791 16.5689 26.0791 15.595V14.44C26.0791 13.4587 25.4618 12.5679 24.5429 12.2233L21.6836 11.1511C21.4973 11.0812 21.3571 10.9281 21.2987 10.744L21.5837 10.5302C22.1363 10.1158 22.4795 9.48291 22.5254 8.79377L22.9005 3.16617C22.955 2.34942 22.6655 1.53823 22.1063 0.94057C21.5471 0.342844 20.757 0 19.9384 0H16.6622C15.8437 0 15.0536 0.342844 14.4944 0.9405C13.9352 1.53823 13.6458 2.34949 13.7002 3.1661L14.0754 8.7937C14.1213 9.48284 14.4646 10.1158 15.0171 10.5301L15.302 10.7439C15.2438 10.928 15.1035 11.0811 14.9171 11.151L12.0578 12.2233C11.139 12.5679 10.5216 13.4587 10.5216 14.44V15.595C10.5216 16.5689 11.3139 17.3612 12.2878 17.3612H17.7367V21.9123L13.6891 24.6949L13.8818 21.805C13.9363 20.9883 13.6468 20.1771 13.0876 19.5794C12.5284 18.9818 11.7383 18.6389 10.9197 18.6389H7.64353C6.82502 18.6389 6.03485 18.9818 5.47573 19.5794C4.91653 20.1772 4.62705 20.9884 4.68148 21.805L5.05666 27.4326C5.10258 28.1218 5.44591 28.7547 5.99836 29.1691L6.28334 29.3828C6.22512 29.567 6.08477 29.72 5.89845 29.7899L3.03912 30.8622C2.12027 31.2068 1.50293 32.0976 1.50293 33.0789V34.234C1.50293 35.2079 2.29521 36.0001 3.26911 36.0001H15.2941C16.268 36.0001 17.0603 35.2079 17.0603 34.234V33.0789C17.0603 32.0976 16.4429 31.2069 15.5241 30.8623L12.6648 29.79C12.4784 29.7201 12.3382 29.567 12.2799 29.3829L12.5648 29.1691C13.1174 28.7547 13.4606 28.1218 13.5065 27.4327L13.5935 26.1288L18.3004 22.8929L22.1732 25.5554C22.0314 26.6336 21.9561 27.8504 21.9454 29.2172C21.9421 29.6564 22.2053 30.0592 22.6162 30.2431C22.9894 30.4103 23.3942 30.5575 23.8269 30.6844L22.5371 31.4215C21.8014 31.8419 21.3443 32.6296 21.3443 33.477V34.234C21.3443 35.2079 22.1366 36.0002 23.1105 36.0002H32.7305C33.7044 36.0002 34.4966 35.2079 34.4966 34.234V33.477C34.4966 32.6294 34.0395 31.8417 33.3037 31.4213ZM13.0795 31.1494L15.1282 31.9177C15.6095 32.0981 15.933 32.5648 15.933 33.0788V34.2338C15.933 34.5861 15.6464 34.8727 15.2941 34.8727H3.26904C2.91677 34.8727 2.63018 34.5861 2.63018 34.2338V33.0788C2.63018 32.5648 2.95355 32.0981 3.43484 31.9177L5.4836 31.1495C6.15473 32.6258 7.63798 33.595 9.28153 33.595C10.925 33.595 12.4084 32.6258 13.0795 31.1494ZM6.53358 30.734C6.81462 30.5767 7.0444 30.3459 7.20246 30.0722L7.25984 30.1152C7.66695 30.4206 8.17144 30.5887 8.68029 30.5887H9.88277C10.3916 30.5887 10.8961 30.4206 11.3032 30.1152L11.3605 30.0722C11.5185 30.346 11.7484 30.5767 12.0293 30.734C11.5289 31.7826 10.4619 32.4676 9.28146 32.4676C8.10098 32.4676 7.03399 31.7826 6.53358 30.734ZM12.3818 27.3575C12.3576 27.7186 12.1778 28.0502 11.8884 28.2672L10.6269 29.2134C10.4137 29.3733 10.1493 29.4614 9.88284 29.4614H8.68036C8.41388 29.4614 8.1495 29.3733 7.93631 29.2134L6.6747 28.2672C6.38529 28.0501 6.2055 27.7186 6.18145 27.3575L5.99442 24.5516C6.99933 24.462 10.4251 24.0957 12.6648 23.113L12.3818 27.3575ZM12.7569 21.73L12.7513 21.8131C10.8354 22.9043 6.99497 23.3262 5.91926 23.4257L5.8062 21.73C5.77195 21.216 5.94682 20.7257 6.29873 20.3496C6.65072 19.9734 7.12821 19.7662 7.64339 19.7662H10.9195C11.4346 19.7662 11.9122 19.9734 12.2642 20.3496C12.6162 20.7258 12.7911 21.216 12.7569 21.73ZM14.825 3.09122C14.7908 2.57723 14.9657 2.08695 15.3176 1.71077C15.6696 1.3346 16.1471 1.12739 16.6623 1.12739H19.9384C20.4536 1.12739 20.9311 1.3346 21.2831 1.71077C21.6351 2.08702 21.81 2.57723 21.7758 3.09122L21.7702 3.17433C19.8544 4.26551 16.0139 4.68745 14.9382 4.78695L14.825 3.09122ZM15.2002 8.71868L15.0131 5.91286C16.018 5.82321 19.4439 5.45695 21.6835 4.4742L21.5352 6.69825C21.5352 6.69839 21.5351 6.69853 21.5351 6.69867C21.473 7.63031 20.6317 8.41753 19.6979 8.41753H18.3003C17.989 8.41753 17.7366 8.66988 17.7366 8.98123C17.7366 9.29257 17.989 9.54492 18.3003 9.54492H19.6979C20.2952 9.54492 20.8612 9.35522 21.3361 9.03389C21.2567 9.26845 21.1095 9.47672 20.9073 9.62845L19.6456 10.5746C19.4324 10.7345 19.168 10.8226 18.9015 10.8226H17.6991C17.4326 10.8226 17.1682 10.7345 16.955 10.5746L15.6935 9.62831C15.4041 9.41126 15.2243 9.07973 15.2002 8.71868ZM20.886 11.9912L18.3004 13.715L15.7146 11.9912C15.9222 11.8428 16.095 11.6521 16.2212 11.4334L16.2786 11.4764C16.6857 11.7818 17.1902 11.9499 17.6991 11.9499H18.9015C19.4104 11.9499 19.9149 11.7818 20.322 11.4764L20.3793 11.4334C20.5057 11.6522 20.6785 11.8429 20.886 11.9912ZM12.2879 16.2338C11.9355 16.2338 11.649 15.9472 11.649 15.595V14.4399C11.649 13.926 11.9723 13.4593 12.4536 13.2789L14.4761 12.5205L17.9877 14.8615C18.0824 14.9247 18.1914 14.9562 18.3004 14.9562C18.4094 14.9562 18.5183 14.9247 18.6131 14.8615L22.1247 12.5205L24.1471 13.2789C24.6284 13.4593 24.9519 13.926 24.9519 14.4399V15.595C24.9519 15.9472 24.6653 16.2338 24.313 16.2338H12.2879ZM23.0771 29.2141C23.0754 29.2134 23.074 29.2127 23.0728 29.212C23.0969 26.2223 23.4349 24.0159 24.1061 22.4666C24.8934 20.6495 26.141 19.7662 27.9203 19.7662C29.6996 19.7662 30.9473 20.6496 31.7346 22.4666C32.4058 24.0159 32.7438 26.2225 32.7678 29.212C32.7666 29.2127 32.7653 29.2134 32.7636 29.2142C32.1481 29.49 31.3977 29.7129 30.584 29.865C30.401 29.7482 30.2877 29.5456 30.2877 29.3273C30.2877 29.3059 30.2863 29.2849 30.284 29.2642L30.3408 29.2301C31.0498 28.8047 31.4902 28.0268 31.4902 27.2V24.0126C31.4902 23.8631 31.4309 23.7198 31.3251 23.614L30.1226 22.4115C29.9025 22.1914 29.5456 22.1914 29.3255 22.4115C28.9281 22.809 28.0318 23.1254 26.8017 23.3024C25.7996 23.4466 24.9227 23.4489 24.9141 23.4489C24.6028 23.4489 24.3504 23.7013 24.3504 24.0126V27.2001C24.3504 28.0269 24.7909 28.8049 25.4998 29.2302L25.5567 29.2643C25.5544 29.2849 25.553 29.306 25.553 29.3273C25.553 29.5456 25.4397 29.7482 25.2567 29.865C24.4432 29.7129 23.6925 29.4898 23.0771 29.2141ZM26.5894 29.8839L27.0117 30.1373C27.292 30.3054 27.6062 30.3895 27.9205 30.3895C28.2347 30.3895 28.5489 30.3054 28.8292 30.1373L29.2515 29.8839C29.387 30.2907 29.6681 30.6423 30.0504 30.8607L30.3668 31.0415C30.0855 31.4189 29.1698 32.5438 27.9206 33.0332C26.6782 32.5457 25.7574 31.4187 25.4746 31.0413L25.7903 30.8607C26.1728 30.6423 26.4538 30.2906 26.5894 29.8839ZM25.4778 27.2V24.5592C25.8517 24.5407 26.3769 24.5017 26.948 24.4202C28.1415 24.2497 29.0566 23.9617 29.6786 23.5616L30.363 24.246V27.2C30.363 27.6331 30.1323 28.0405 29.7609 28.2634L28.249 29.1705C28.0463 29.2921 27.7944 29.2921 27.5917 29.1705L26.0798 28.2634C25.7085 28.0406 25.4778 27.6331 25.4778 27.2ZM33.3694 34.2338H33.3693C33.3693 34.5861 33.0827 34.8727 32.7304 34.8727H23.1104C22.7581 34.8727 22.4715 34.5861 22.4715 34.2338V33.4768C22.4715 33.033 22.711 32.6204 23.0964 32.4001L24.4894 31.6041C24.7347 31.9514 25.9544 33.5713 27.7422 34.1673C27.8001 34.1866 27.8603 34.1963 27.9205 34.1963C27.9806 34.1963 28.0408 34.1866 28.0987 34.1673C29.8865 33.5714 31.1061 31.9515 31.3516 31.6041L32.7445 32.4001C33.1299 32.6204 33.3694 33.0329 33.3694 33.4768V34.2338Z" fill="#E0933E"/>
</g>
<defs>
<clipPath id="clip0_188_228">
<rect width="36" height="36" fill="white"/>
</clipPath>
</defs>
</svg>
