<svg width="36" height="36" viewBox="0 0 36 36" fill="none" xmlns="http://www.w3.org/2000/svg">
<g clip-path="url(#clip0_188_238)">
<path d="M20.1094 22.2188C19.5269 22.2188 19.0547 22.691 19.0547 23.2734V25.3828C19.0547 25.9653 19.5269 26.4375 20.1094 26.4375C20.6918 26.4375 21.1641 25.9653 21.1641 25.3828V23.2734C21.1641 22.6909 20.6918 22.2188 20.1094 22.2188Z" fill="#E0933E"/>
<path d="M24.3281 22.2188C23.7457 22.2188 23.2734 22.691 23.2734 23.2734V25.3828C23.2734 25.9653 23.7457 26.4375 24.3281 26.4375C24.9106 26.4375 25.3828 25.9653 25.3828 25.3828V23.2734C25.3828 22.6909 24.9106 22.2188 24.3281 22.2188Z" fill="#E0933E"/>
<path d="M28.5469 22.2188C27.9644 22.2188 27.4922 22.691 27.4922 23.2734V25.3828C27.4922 25.9653 27.9644 26.4375 28.5469 26.4375C29.1293 26.4375 29.6016 25.9653 29.6016 25.3828V23.2734C29.6016 22.6909 29.1293 22.2188 28.5469 22.2188Z" fill="#E0933E"/>
<path d="M35.9349 32.4711L34.5615 28.7446C35.5165 27.3009 36 25.8177 36 24.3281C36 19.0941 30.764 14.8359 24.3281 14.8359C23.736 14.8359 23.1502 14.8723 22.5731 14.9436C23.0333 13.9111 23.2735 12.8079 23.2735 11.6719C23.2735 6.04588 17.6223 2.17967 11.6719 2.17967C9.48018 2.17967 7.35358 2.6881 5.48925 3.65384L1.41499 2.17278C1.02933 2.03265 0.596974 2.12905 0.307286 2.41986C0.0175989 2.71081 -0.0769011 3.14352 0.0651302 3.52876L1.43854 7.25532C0.48356 8.69898 2.0794e-05 10.1822 2.0794e-05 11.6718C2.0794e-05 16.9058 5.23605 21.164 11.6719 21.164C12.2656 21.164 12.8527 21.1273 13.4294 21.0561C12.9657 22.0932 12.7266 23.1962 12.7266 24.3281C12.7266 29.9541 18.3777 33.8203 24.3281 33.8203C26.5199 33.8203 28.6465 33.3119 30.5108 32.3461L34.5851 33.8271C34.9747 33.9687 35.406 33.868 35.6928 33.58C35.9824 33.289 36.0769 32.8564 35.9349 32.4711ZM2.1094 11.6718C2.1094 10.4792 2.56629 9.25515 3.46741 8.03375C3.67807 7.74814 3.73108 7.37584 3.60832 7.04284L2.83024 4.93163L5.21496 5.79852C5.50584 5.90434 5.82844 5.87684 6.09724 5.72377C7.74508 4.7851 9.67277 4.28898 11.6719 4.28898C16.9059 4.28898 21.1641 7.60091 21.1641 11.6718C21.1641 15.6407 17.0091 19.0546 11.6719 19.0546C6.29679 19.0547 2.1094 15.6231 2.1094 11.6718ZM32.3917 28.957L33.1698 31.0683L30.7851 30.2014C30.4942 30.0956 30.1716 30.1231 29.9028 30.2761C28.255 31.2148 26.3273 31.7109 24.3281 31.7109C19.0942 31.7109 14.836 28.399 14.836 24.3281C14.836 22.9209 15.3475 21.5606 16.3172 20.3775C18.1481 19.7248 19.7093 18.7023 20.8885 17.4478C21.9838 17.1145 23.1395 16.9453 24.3281 16.9453C29.7033 16.9453 33.8906 20.3768 33.8906 24.3281C33.8906 25.5207 33.4338 26.7448 32.5326 27.9661C32.322 28.2517 32.269 28.6241 32.3917 28.957Z" fill="#E0933E"/>
<path d="M11.6719 6.39844C9.92721 6.39844 8.50781 7.81784 8.50781 9.5625C8.50781 10.145 8.98003 10.6172 9.5625 10.6172C10.145 10.6172 10.6172 10.145 10.6172 9.5625C10.6172 8.98094 11.0903 8.50781 11.6719 8.50781C12.2534 8.50781 12.7266 8.98094 12.7266 9.5625C12.7266 10.007 12.4457 10.4063 12.0277 10.5559C11.184 10.8582 10.6172 11.6632 10.6172 12.5591V12.7266C10.6172 13.309 11.0894 13.7812 11.6719 13.7812C12.2543 13.7812 12.7266 13.309 12.7266 12.7266V12.5591C12.7266 12.5516 12.7317 12.5445 12.7391 12.5418C13.9933 12.0925 14.8359 10.8953 14.8359 9.5625C14.8359 7.81791 13.4166 6.39844 11.6719 6.39844Z" fill="#E0933E"/>
<path d="M11.6719 16.9453C12.2544 16.9453 12.7266 16.4731 12.7266 15.8906C12.7266 15.3081 12.2544 14.8359 11.6719 14.8359C11.0894 14.8359 10.6172 15.3081 10.6172 15.8906C10.6172 16.4731 11.0894 16.9453 11.6719 16.9453Z" fill="#E0933E"/>
</g>
<defs>
<clipPath id="clip0_188_238">
<rect width="36" height="36" fill="white"/>
</clipPath>
</defs>
</svg>
