<svg width="36" height="36" viewBox="0 0 36 36" fill="none" xmlns="http://www.w3.org/2000/svg">
<path d="M23.8105 12.0977C23.5192 12.0977 23.2832 12.3338 23.2832 12.625V13.548C23.2832 13.8392 23.5192 14.0753 23.8105 14.0753C24.1018 14.0753 24.3379 13.8392 24.3379 13.548V12.625C24.3379 12.3338 24.1018 12.0977 23.8105 12.0977Z" fill="#E0933E"/>
<path d="M30.1172 12.0977C29.8259 12.0977 29.5898 12.3338 29.5898 12.625V13.548C29.5898 13.8392 29.8259 14.0753 30.1172 14.0753C30.4085 14.0753 30.6445 13.8392 30.6445 13.548V12.625C30.6445 12.3338 30.4085 12.0977 30.1172 12.0977Z" fill="#E0933E"/>
<path d="M27.4174 14.4854H27.0381V13.3936C27.0381 13.1023 26.802 12.8662 26.5107 12.8662C26.2194 12.8662 25.9834 13.1023 25.9834 13.3936V14.6612C25.9834 15.1458 26.3776 15.5401 26.8623 15.5401H27.4174C27.7087 15.5401 27.9448 15.304 27.9448 15.0128C27.9448 14.7215 27.7087 14.4854 27.4174 14.4854Z" fill="#E0933E"/>
<path d="M28.2341 15.9668C27.9428 15.9668 27.7067 16.2029 27.7067 16.4941C27.7067 16.9039 27.3735 17.2373 26.9638 17.2373C26.5541 17.2373 26.2207 16.9039 26.2207 16.4941C26.2207 16.2029 25.9847 15.9668 25.6934 15.9668C25.4021 15.9668 25.166 16.2029 25.166 16.4941C25.166 17.4855 25.9725 18.292 26.9638 18.292C27.955 18.292 28.7614 17.4855 28.7614 16.4941C28.7614 16.2029 28.5253 15.9668 28.2341 15.9668Z" fill="#E0933E"/>
<path d="M4.45898 12.7246C4.16768 12.7246 3.93164 12.9607 3.93164 13.252V14.1365C3.93164 14.4278 4.16768 14.6639 4.45898 14.6639C4.75029 14.6639 4.98632 14.4278 4.98632 14.1365V13.252C4.98632 12.9607 4.75029 12.7246 4.45898 12.7246Z" fill="#E0933E"/>
<path d="M10.5029 12.7246C10.2116 12.7246 9.97559 12.9607 9.97559 13.252V14.1365C9.97559 14.4278 10.2116 14.6639 10.5029 14.6639C10.7942 14.6639 11.0303 14.4278 11.0303 14.1365V13.252C11.0303 12.9607 10.7942 12.7246 10.5029 12.7246Z" fill="#E0933E"/>
<path d="M7.91572 15.0127H7.57421V13.9883C7.57421 13.697 7.33818 13.4609 7.04687 13.4609C6.75557 13.4609 6.51953 13.697 6.51953 13.9883V15.1885C6.51953 15.6731 6.91377 16.0674 7.39843 16.0674H7.91572C8.20702 16.0674 8.44306 15.8313 8.44306 15.5401C8.44306 15.2488 8.20702 15.0127 7.91572 15.0127Z" fill="#E0933E"/>
<path d="M8.69858 16.4326C8.40728 16.4326 8.17124 16.6687 8.17124 16.96C8.17124 17.3406 7.86166 17.6503 7.48113 17.6503C7.1006 17.6503 6.79101 17.3406 6.79101 16.96C6.79101 16.6687 6.55497 16.4326 6.26367 16.4326C5.97237 16.4326 5.73633 16.6687 5.73633 16.96C5.73633 17.9222 6.51904 18.705 7.48113 18.705C8.44328 18.705 9.22592 17.9222 9.22592 16.96C9.22592 16.6687 8.98989 16.4326 8.69858 16.4326Z" fill="#E0933E"/>
<path d="M14.5039 19.7461C14.2126 19.7461 13.9766 19.9822 13.9766 20.2734V21.0205C13.9766 21.3117 14.2127 21.5478 14.5039 21.5478C14.7952 21.5478 15.0312 21.3117 15.0312 21.0205V20.2734C15.0312 19.9822 14.7952 19.7461 14.5039 19.7461Z" fill="#E0933E"/>
<path d="M19.6084 19.7461C19.3171 19.7461 19.0811 19.9822 19.0811 20.2734V21.0205C19.0811 21.3117 19.3171 21.5478 19.6084 21.5478C19.8997 21.5478 20.1357 21.3117 20.1357 21.0205V20.2734C20.1357 19.9822 19.8997 19.7461 19.6084 19.7461Z" fill="#E0933E"/>
<path d="M17.4232 21.4266H17.2168V21.1484C17.2168 20.8572 16.9808 20.6211 16.6895 20.6211C16.3981 20.6211 16.1621 20.8572 16.1621 21.1484V21.6024C16.1621 22.087 16.5564 22.4813 17.041 22.4813H17.4232C17.7145 22.4813 17.9506 22.2452 17.9506 21.9539C17.9506 21.6627 17.7145 21.4266 17.4232 21.4266Z" fill="#E0933E"/>
<path d="M18.0849 22.8779C17.7936 22.8779 17.5575 23.114 17.5575 23.4053C17.5575 23.6815 17.3328 23.9062 17.0566 23.9062C16.7804 23.9062 16.5557 23.6815 16.5557 23.4053C16.5557 23.114 16.3196 22.8779 16.0283 22.8779C15.737 22.8779 15.501 23.114 15.501 23.4053C15.501 24.2631 16.1988 24.9609 17.0566 24.9609C17.9144 24.9609 18.6122 24.2631 18.6122 23.4053C18.6122 23.114 18.3762 22.8779 18.0849 22.8779Z" fill="#E0933E"/>
<path d="M32.5042 19.5869H31.0047C32.0942 18.7901 32.9418 17.6813 33.4124 16.392C33.5616 16.4319 33.7181 16.4541 33.8797 16.4541H34.1369C35.1372 16.4541 35.9509 15.6404 35.9509 14.6402V12.4528C35.9509 11.6667 35.448 10.996 34.7471 10.745V8.63256C34.7471 5.75925 32.4094 3.42172 29.5361 3.42172H28.5349C28.6235 3.22724 28.5885 2.99022 28.4284 2.83018C28.2225 2.62417 27.8886 2.62424 27.6826 2.83018L27.1561 3.35682L26.5308 2.73161C26.3249 2.52566 25.991 2.52566 25.7851 2.73161C25.5967 2.91997 25.5812 3.21507 25.7374 3.42179H24.3919C21.5186 3.42179 19.181 5.75939 19.181 8.63263V10.745C18.4801 10.9961 17.9772 11.6667 17.9772 12.4529V12.7237H14.9745C14.9704 12.7237 14.9664 12.724 14.9623 12.724V11.8534V10.6119V9.42512C14.9623 8.37353 14.6404 7.3668 14.0314 6.51356C13.8621 6.27647 13.5326 6.22155 13.2958 6.39073C13.0587 6.55997 13.0038 6.88924 13.1729 7.12633C13.6536 7.79971 13.9076 8.59459 13.9076 9.42512V11.326H12.3694C10.8232 11.326 9.40848 10.4161 8.76505 9.00796C8.67927 8.82022 8.49182 8.69978 8.28545 8.69978C8.07894 8.69978 7.89149 8.82022 7.80578 9.00803C7.16264 10.4162 5.74781 11.3261 4.20158 11.3261H1.05468V9.42519C1.05468 7.24094 2.83168 5.46387 5.016 5.46387H9.94616C10.5209 5.46387 11.0749 5.58403 11.5927 5.82106C11.8577 5.94227 12.1706 5.82584 12.2916 5.56097C12.4129 5.2961 12.2964 4.98322 12.0316 4.862C11.375 4.56155 10.6734 4.40919 9.94616 4.40919H8.88304C8.95461 4.22103 8.91496 4.00032 8.76343 3.84873C8.55749 3.64285 8.22358 3.64278 8.0177 3.84873L7.52847 4.33796L6.94488 3.75437C6.73893 3.54842 6.40502 3.54828 6.19915 3.7543C6.02126 3.93219 5.99735 4.20542 6.1268 4.40926H5.016C2.2502 4.40905 0 6.65925 0 9.42505V19.423C0 20.1014 0.552021 20.6534 1.23046 20.6534H2.18608C1.4227 21.2722 0.933535 22.2166 0.933535 23.2735V27.3336C0.933535 27.812 1.32271 28.2012 1.80112 28.2012H11.1604C11.1069 28.4291 11.0777 28.6663 11.0777 28.9104V32.5867C11.0777 33.0474 11.4525 33.4222 11.9131 33.4222H22.1996C22.6603 33.4222 23.0351 33.0474 23.0351 32.5867V31.4996C23.0351 31.2084 22.7991 30.9723 22.5078 30.9723C22.2166 30.9723 21.9804 31.2084 21.9804 31.4996V32.3676H12.1324V28.9105C12.1324 27.781 13.0513 26.862 14.1809 26.862H15.3325L16.4226 28.4794C16.5737 28.7036 16.8048 28.8322 17.0564 28.8322C17.3081 28.8322 17.539 28.7036 17.6902 28.4794L18.7804 26.8621H19.9318C21.0615 26.8621 21.9805 27.781 21.9805 28.9106V29.4606C21.9805 29.7518 22.2166 29.9879 22.5079 29.9879C22.7992 29.9879 23.0352 29.7518 23.0352 29.4606V28.9105C23.0352 28.6666 23.0064 28.4292 22.9529 28.2013H30.2343C30.5256 28.2013 30.7616 27.9652 30.7616 27.674C30.7616 27.3827 30.5256 27.1466 30.2343 27.1466H22.4835C22.034 26.4985 21.3442 26.029 20.544 25.8683C21.3418 25.2405 21.9678 24.4037 22.3371 23.4404C22.4395 23.4615 22.5454 23.4728 22.6539 23.4728H22.862C23.727 23.4728 24.4308 22.7691 24.4308 21.9041V20.6416H24.9003L26.3304 22.7633C26.4815 22.9876 26.7125 23.1162 26.9642 23.1162C27.2158 23.1162 27.4468 22.9876 27.598 22.7633L29.0281 20.6416H32.5044C33.8503 20.6416 34.9453 21.7366 34.9453 23.0826V27.1466H32.6953C32.404 27.1466 32.168 27.3827 32.168 27.674C32.168 27.9652 32.404 28.2013 32.6953 28.2013H35.1177C35.6042 28.2013 36 27.8055 36 27.3189V23.0826C35.9999 21.155 34.4317 19.5869 32.5042 19.5869ZM33.8254 14.0739H34.0297C34.3209 14.0739 34.5571 13.8378 34.5571 13.5465C34.5571 13.2553 34.3209 13.0192 34.0297 13.0192H33.8257V11.6937H34.139C34.5567 11.6948 34.8963 12.0349 34.8963 12.4528V14.6402C34.8963 15.0588 34.5556 15.3994 34.137 15.3994H33.8798C33.8162 15.3994 33.7549 15.3905 33.6959 15.3758C33.779 14.9542 33.8236 14.519 33.8254 14.0739ZM24.3919 4.4764H29.5361C31.8279 4.4764 33.6924 6.34087 33.6924 8.63256V10.639H32.0646C30.4423 10.639 28.9579 9.68429 28.283 8.20682C28.1972 8.01902 28.0097 7.89857 27.8034 7.89857C27.5969 7.89857 27.4095 8.01902 27.3237 8.20682C26.6488 9.68429 25.1644 10.639 23.5421 10.639H20.2358V8.63256H20.2357C20.2357 6.3408 22.1002 4.4764 24.3919 4.4764ZM19.0319 12.4528C19.0319 12.0349 19.3714 11.6948 19.7892 11.6937C19.7892 11.6937 20.0852 11.6954 20.1025 11.6966V12.8334C19.7922 12.7623 19.4697 12.7235 19.1381 12.7235H19.0319V12.4528ZM1.9378 12.8467C1.9378 12.6896 1.9454 12.5344 1.95869 12.3807H4.20165C5.83634 12.3807 7.35487 11.5779 8.28552 10.2753C9.21639 11.5779 10.7348 12.3807 12.3695 12.3807H13.0037C13.017 12.5344 13.0246 12.6897 13.0246 12.8467V13.191C11.621 13.9046 10.6565 15.3622 10.6565 17.0418V18.6842C10.2273 18.8608 9.89272 19.2216 9.75308 19.668C9.05945 19.9812 8.29044 20.1561 7.48115 20.1561C4.42454 20.1561 1.9378 17.6694 1.9378 14.6128V12.8467ZM11.3722 21.5463H11.4053C11.4117 21.8426 11.4416 22.1331 11.492 22.4166C11.4811 22.4173 11.4702 22.4181 11.4591 22.4181H11.2509C10.9674 22.4181 10.7367 22.1876 10.7367 21.9041V20.1338C10.7367 19.8508 10.9666 19.6206 11.2495 19.6198H11.4021V20.4916H11.3721C11.0808 20.4916 10.8447 20.7277 10.8447 21.019C10.8448 21.3102 11.0809 21.5463 11.3722 21.5463ZM8.04351 21.1867L7.48108 22.0211L6.91858 21.1865C7.10414 21.2023 7.29159 21.2108 7.48108 21.2108C7.67057 21.2108 7.85809 21.2025 8.04351 21.1867ZM1.23046 19.5988C1.13519 19.5988 1.05468 19.5183 1.05468 19.423V16.1053C1.37524 17.4854 2.12955 18.7006 3.1663 19.5988H1.23046ZM12.9743 26.0515H12.9742C12.429 26.2825 11.9634 26.6655 11.6298 27.1466H1.98815V23.2736C1.98815 21.9957 3.02771 20.9562 4.30557 20.9562H5.49145L6.84729 22.9678C6.99839 23.192 7.22936 23.3206 7.48108 23.3206C7.7328 23.3206 7.9637 23.192 8.11487 22.9678L9.47071 20.9563H9.68206V21.9041C9.68206 22.7691 10.3859 23.4728 11.2509 23.4728H11.4592C11.5678 23.4728 11.6738 23.4615 11.7762 23.4404C12.0477 24.1493 12.4586 24.7895 12.9743 25.3286V26.0515ZM17.0563 27.5326L16.7427 27.0673C16.8467 27.073 16.951 27.0769 17.0563 27.0769C17.1617 27.0769 17.266 27.073 17.37 27.0673L17.0563 27.5326ZM21.6559 21.4228C21.6559 23.9589 19.5925 26.0222 17.0563 26.0222C14.5202 26.0222 12.4569 23.9589 12.4569 21.4228V19.6198H21.6559V21.4228ZM22.4016 18.5651H21.2692V18.0175C21.2692 17.7263 21.0332 17.4901 20.7419 17.4901C20.4506 17.4901 20.2146 17.7263 20.2146 18.0175V18.5651H19.4265V18.0175C19.4265 17.7263 19.1905 17.4901 18.8992 17.4901C18.6078 17.4901 18.3718 17.7263 18.3718 18.0175V18.5651H17.5837V18.0175C17.5837 17.7263 17.3476 17.4901 17.0563 17.4901C16.765 17.4901 16.529 17.7263 16.529 18.0175V18.5651H15.741V18.0175C15.741 17.7263 15.505 17.4901 15.2137 17.4901C14.9224 17.4901 14.6863 17.7263 14.6863 18.0175V18.5651H13.8983V18.0175C13.8983 17.7263 13.6623 17.4901 13.371 17.4901C13.0797 17.4901 12.8437 17.7263 12.8437 18.0175V18.5651H11.7111V17.0417C11.7111 15.2423 13.175 13.7783 14.9745 13.7783H19.1381C20.9376 13.7783 22.4016 15.2423 22.4016 17.0417V18.5651ZM22.8619 22.418H22.6538C22.6429 22.418 22.6321 22.4173 22.6213 22.4166C22.6718 22.1331 22.701 21.8425 22.7074 21.5462H22.7752C23.0665 21.5462 23.3025 21.3101 23.3025 21.0189C23.3025 20.7277 23.0665 20.4916 22.7752 20.4916H22.7106V19.6198H22.8634C23.1462 19.6205 23.376 19.8507 23.376 20.1337V21.9041C23.376 22.1875 23.1454 22.418 22.8619 22.418ZM26.964 21.8165L26.3314 20.8779C26.5398 20.8971 26.7508 20.9072 26.964 20.9072C27.1776 20.9072 27.3886 20.8963 27.5973 20.8771L26.964 21.8165ZM26.964 19.8526C25.8575 19.8526 24.8234 19.5397 23.9425 19C23.817 18.8808 23.6715 18.7826 23.5121 18.7096C23.4933 18.6956 23.4749 18.6811 23.4562 18.6669V17.0418C23.4562 15.3898 22.5233 13.9522 21.1571 13.2263V11.6937H23.5421C25.2512 11.6937 26.838 10.8489 27.8033 9.48024C28.7686 10.8489 30.3554 11.6937 32.0646 11.6937H32.7711V14.0456C32.7711 17.2476 30.1661 19.8526 26.964 19.8526Z" fill="#E0933E"/>
</svg>
